<svg xmlns="http://www.w3.org/2000/svg" width="24" height="24">
    <path
        d="M12 7a5 5 0 1 0 0 10 5 5 0 0 0 0-10M2 13h2q1 0 1-1c0-1-.4-1-1-1H2q-.9.1-1 1 0 1.2 1 1m18 0h2q1 0 1-1c0-1-.4-1-1-1h-2q-.9.1-1 1c-.1.9.5 1 1 1M11 2v2q.1 1 1 1 1.2 0 1-1V2q0-.9-1-1c-1-.1-1 .5-1 1m0 18v2q.1 1 1 1 1.2 0 1-1v-2q0-.9-1-1c-1-.1-1 .5-1 1M6 4.6a1 1 0 0 0-1.4 0 1 1 0 0 0 0 1.4l1 1a1 1 0 1 0 1.5-1.4zM18.4 17a1 1 0 0 0-1.4 0 1 1 0 0 0 0 1.4l1 1q.7.6 1.4 0a1 1 0 0 0 0-1.4zm1-11a1 1 0 0 0 0-1.4 1 1 0 0 0-1.4 0l-1 1A1 1 0 1 0 18.3 7zM7.1 18.4A1 1 0 0 0 7 17a1 1 0 0 0-1.5 0l-1 1A1 1 0 1 0 6 19.4z" />
</svg>