<svg version="1.1" xmlns="http://www.w3.org/2000/svg" x="0" y="0" viewBox="0 0 800 800" xml:space="preserve"><path class="st0" d="M641.4 555.6a54 54 0 0 0-71.2 27.3c-.5 1-.8 2.1-1.2 3.2H160l227.6-394.3 170.1 292.8 32.4-18.8L387.5 117 95 623.6h474a53.8 53.8 0 0 0 99.7 3.2 54 54 0 0 0-27.3-71.2zm1.6 59.8a25.8 25.8 0 1 1-13.1-34c13.1 5.7 18.9 21 13.1 34z"/><path class="st0" d="M379 549.9h-27.6v-16.7c-7.4 13.5-22.8 20.2-39 20.2-37.1 0-58.9-28.9-58.9-61.6 0-36.5 26.4-61.4 58.9-61.4 21.1 0 34 11.2 39 20.5V434H379v115.9zm-97.8-57.4c0 14.3 10.3 35.2 35.2 35.2 15.4 0 25.5-8 30.8-18.6a40 40 0 0 0 4.4-16.2c.2-5.5-.8-11.2-3.2-16.2a34 34 0 0 0-32.3-20.5c-22.4 0-35 18.1-35 36.1v.2zm155-3.6-39-54.8h33.3l22.6 35.6 22.6-35.6h32.9l-38.8 54.8 43.2 61h-34L453.1 510l-26.2 39.9h-33.5l42.8-61z"/></svg>