<svg width="2500" height="977" viewBox="0 0 512 200" xmlns="http://www.w3.org/2000/svg" preserveAspectRatio="xMinYMin meet"><path d="M361.4 43.4v.6l1.3-.1c0-.4 0-1 .4-1.7l-.2-1.1c-.5 0-1 .8-1.5 2.3zm-12-28.7v-1.1l-1.9.1.2 1.1 1.7-.1zm-34.6 64.9c-.1-1-3.3-5-9.6-12 0-1.3 2-3.2 6.5-5.7l12.6-11c2.9-3.6 4.5-9.5 5-17.5l-.1-1.9c-.5-5.6-4.6-10.1-12.2-13.5-4.6-3.1-12.8-4.8-24.5-5.1-9.8.8-22.5 4.3-38.2 10.5-4.4 3-9.3 6.2-14.8 9.3v1c.4-.1 1-.3 1.6-.7.6-.1 1 .2 1 .8l1-.5h.4v.4c.1.5-3.3 3.2-10.2 8l.5 1h-.4l-1.1-.4c0 .3-.5.5-1.4.6v.4l1 1.4c-.3 0-.8-.1-1.5-.4-1.6.2-3.1 1-4.7 2.6l.7-2.8c2.3-10 3.8-18.8 4.7-26.4l-.1-.5c-1.6-1-3.2-2.5-4.6-4.3v-2l-.1-.4-.5.1c-5 7.5-14.6 20.3-28.8 38.4a164 164 0 00-16.8 21.4c-4.4 4.6-6.6 7.3-6.3 8.3-1.2.7-1.7 1.5-1.5 2.3-.3.1-.6 0-.6-.3-2 3-4.7 5-8.5 5.9l-4 .9c-.4 0-.7.5-.7 1.1l.1.5 1.5-.4.1.5-3.3 1.3-5.9 1.3-3.1.2c-.4.5 2.5 0 1.3.2l-3.8 1c-2.4.5-3.7.3-3.9-.7l-.4.1v1l-.2-1-3.1.8c-.3-1.4-4.5-6.7-12.6-15.7-.1-1.7 2.7-4.2 8.6-7.5l16.6-14.6a42.4 42.4 0 006.6-22.9l-.2-2.4c-.7-7.5-6-13.4-16.2-18-6-4-16.7-6.2-32.2-6.6a194 194 0 00-50.3 13.7c-5.6 4-12.1 8.2-19.4 12.2L39 33a5 5 0 002-.8c.8 0 1.3.3 1.3 1.1l1.3-.7h.7v.5c0 .7-4.5 4.2-13.6 10.6l.7 1.1h-.6l-1.4-.4c0 .4-.6.6-2 .7l.2.7 1.5 1.7c-.5 0-1.2-.1-2-.4-3 .2-5.9 2.3-8.7 6.4l.7 1c2.4-2.2 3.9-3.3 4.3-3.4l.1 1.9c-.4 0-1 .3-1.9.8l1.6 2.3a51.3 51.3 0 019.8-8.3c1.8.5 2.8 1 2.8 1.6h1.4c9.7-7.3 19.4-12.5 29-15.7v1.3c-1.7 2.6-3 4-3.6 4 0 1 .4 1.7 1 2.4.1 1.7-4.2 12.6-13 32.9-20 47.1-36.8 82-50.5 104.5 0 .5.3 1 .8 1.8a17 17 0 006.4-2.4h.7l.1 1.2 1.3-.1 1.3-.7c0 .4.4.5 1.3.5v1.3c.2 1.2-.5 3.1-2 5.7a29.9 29.9 0 00-4.4 9.8v.6l1.3-.1c5.4-6.1 9.5-12.1 12.4-18 15.9-4.6 28-9.2 36.3-13.7a34 34 0 0019.3-6.6v-.7l-3.3 1h-.7v-.6c6.2-1 10.4-2.3 12.8-4.2 12-9.3 21.2-15.9 27.3-19.8a71.5 71.5 0 0024.7-27.2l2.1-.5c1.8 0 2.8 0 3-.2 0-.3.1-.5.5-.6 2.8-.3 1.4.2 3.2-.2l4.8-1 .8-.3-.4.3c.6 0 1.1 0 1.8-.2l.3 1.4-21.7 34.5-4.8 6-2.3 7.9.4-.2 2.4-1-.8 3.1.3 1 .6.7c-.3.1-.4.3-.3.6v.5l1-.2c1.5-1.2 2.1-2.4 1.9-3.4a9 9 0 003 .2l.2.5c-1 .2-1.4 1-1.5 2.3v.5l.6-.1c7.9-8.6 27.2-38 42.6-58-.5-2 7.6-5 24.2-9h.6c.6 2.6-.7 8.9-3.9 18.9-2 6-3 9.4-2.9 10-2.6 8-3.9 12.3-3.7 13l-5.9 19.3c-3.8 10-6.7 20.3-8.8 31.3l1.6.1.9-.7c0 .4.3.5.6.4l-.3-1.4h2.6c.7-.3 1.4-1.2 1.9-3-.1-2.6.4-4 1.6-4.3 1.6-6.2 2.5-9.3 2.9-9.4 1.5-6.1 2.6-9.7 3.3-10.5 2.2-8 3.8-12.2 4.9-12.4l.2 1-1.6 4.2a205.7 205.7 0 01-8.6 29.8l.8 3.6.5-.1c7-15.1 17.2-45 30.4-89.8.4-4 2.3-7 5.6-9.2l-.7-.8-.1-.4c1.5-.3 2.5-1 3.1-1.8 0-.3-1.4-.8-4-1.5l6.6-28.2c1.5-1.3 2.3-2 2.6-2v1.5c-.2 0-.8.2-1.4.6l1.3 1.8c2.2-2.5 4.7-4.6 7.4-6.4 1.3.4 2 .9 2 1.3h1A80.1 80.1 0 01260.2 34l.1 1c-1.3 2-2.2 3-2.7 3 0 .7.2 1.3.6 1.9 0 1.2-3.2 9.5-9.8 25a679.4 679.4 0 01-38.3 79.3c0 .3.2.8.7 1.4 2.5-.6 4.1-1.3 4.8-1.9h.4v1l1.2-.1.9-.5c0 .2.4.4 1 .3v1c.2 1-.4 2.4-1.5 4.4a21.5 21.5 0 00-3.5 7.3v.5h1c4.2-4.7 7.3-9.2 9.5-13.7 12-3.5 21.2-7 27.6-10.4a26 26 0 0014.6-5v-.5l-2.5.7h-.5v-.4c4.7-.7 8-1.8 9.7-3.2 9.2-7 16.1-12 20.8-15 14.6-10.6 21.4-20.8 20.6-30.6zm-2.5.6l.3 3.9c-.4 1-1 1.4-1.4 1.4l-.6-6.5c1.1.4 1.6.8 1.7 1.2zM25.9 49.5h-.6l-.1-1.2 2.6-.2v.6a5 5 0 00-1.9.8zM13.2 176.9a8 8 0 00-4-.8l-.2-1.9c0-.7.3-1.2 1.2-1.4.9 0 1.4.6 1.4 1.8 2.2-2.7 3.4-4 3.7-4.1l1.4.6c-.5 3.8-1.7 5.7-3.5 5.8zM149.4 34.5c-.7 0-2-2-3.8-6l-.1-1c1.2-.2 2.4 1.8 3.8 5.8v1.2zm-1.8-14.1l-.6 1.2-18.5-7.7c12.4.4 18.7 2.6 19 6.5zm-78.1 67l-2.6.3-.2-1.2 2.7-.2v1.1zm-2.2-40.2h.7L68 49c-.6 0-1.4 1-2.3 2.7l-.2-1.3c1.2-1.4 1.8-2.5 1.7-3.2zM62 60l.2 2.4h-.7l-.2-2.4h.7zm-3 4.6l1.3-.1c0 2-.6 3.1-1.7 3.2H58c.8-1.3 1.2-2.4 1-3.1zm-2 6.4h.7v.6l-1.2 2h-1.2v-.6c1.2 0 1.7-.7 1.6-2zM54.6 77l-.4 3.1h-.6l-.3-3h1.3zm-21.2 60.3c-.8 4.3-1.7 6.4-2.7 6.5v-.6c-.2-2 .7-4 2.7-5.9zm-3.9 8.5v.6c.1.8-.3 1.3-1 1.3l-.1-.6c-.1-.7.3-1.2 1.1-1.3zm-1.1 17.5l2-.2v.7a5 5 0 00-2 .7l-1.2.1c0-.6.4-1.1 1.2-1.3zm56-17.3c-11.1 5.4-17.6 9.1-19.5 11-12 4.2-18 6.8-17.8 7.8a194.8 194.8 0 00-21 9.2c-.8.1-2-.2-3.4-.9-.2-2.1.8-3.9 2.8-5.3 1.9-.1 3.7.2 5.4.9 2-1 5.4-2.2 10.3-3.4L41 164l-3.9.4c.5-.7 4.3-2.5 11.4-5.4l2-.2v.6c-3.4.4-5.2 1.3-5.6 3.1 0 .8.5 1.1 1.3 1 2.6-1.5 3.8-2.5 3.8-2.7 4.8-1 18-7.9 39.8-20.9l.1 1.2c0 .6-1.8 2.2-5.6 4.9zm-33.4 11c3.2-.3 5.9-1.6 8.2-3.8.9-.1 1.4.2 1.4 1a29 29 0 00-8.9 4h-.6l-.1-1.2zm53.8-41.4l-16.7 13.3a165 165 0 01-20 12.2c-19.8 10.9-32 16.5-36.8 17h-.7c.6-2.2 9.3-20.2 26.4-54a144 144 0 0035.3-10.4l4-.4c8-.7 14.2.9 18.2 4.7l.2 2.4c-3 8.7-6.3 13.7-9.9 15.2zM72.3 97.2L75 97v.6l-2.7.2v-.6zm37.7-6.4l2-.2c1.8.9 2.7 1.6 2.8 2.3v.6c-1.7.2-3.3-.7-4.8-2.7zm5.3-30.4A77 77 0 01101 71.1c-2.5.2-12.1 3.9-28.7 11.1a5.3 5.3 0 00-2.6-.4l-.1-1.2c-.2-2.4.8-5.3 3.2-9C74 64.8 75.5 61 77 60l13.8-31c-.1-2 2.8-3.5 8.9-4.5l2-.2.1 1.8c6-1 9.6-1.4 11-1.6 11-.9 16.7 1.3 17.2 6.7l1.3-.2-.3-3 1.3-.2c3.3 1.8 5 4 5.2 6.5.2 1.7-.8 3.9-2.8 6.4-.8.1-1.3-.5-1.4-1.7l-1.3.1-.3 3.8c-5.6 8.3-9.6 12.6-12.1 12.8-2.3 3.1-3.7 4.7-4.3 4.7zm8.5 21.8c-1.1-.8-2-1.1-2.7-1l-.2-2h1.3l2.7 1.6c.2.8-.2 1.3-1.1 1.4zm8.8 10.4c1.2.5 1.9 1 2 1.5l-.5.1-.4.1-.9.8-.2-2.5zm.8 5.2l-.1-.5 1.6-.4.1.5-1.6.4zm3.8 4.3l5.5-1.1v.5l-5.7 1.3.2-.7zm5.6 2.3c-2.4.3-1.9 0-5.7.8l-.1-.5 4.8-1.5 2.3-.5.2.9c-1 .2-.3.2-1.5.8zm5.1-1.2c-.5.2-1 0-1.3-.7l1.5-.4c.7-.1 1 .1 1.2.8l-1.4.3zm13.9-14.9l-.1-.5 2.3-.5.3.9-2.5.1zm14.8 90.7v-1.5l.6-.1c.6-.2 1 0 1.2.7v.5l-1.8.4zm10.3-86.8l-1-.2a30 30 0 01-4.4 1.5l-1 .2c-.5.2-1 0-1.2-.7l7-1.6 2.2-1 .8.8a5 5 0 00-2.4 1zm5.3-1.7V90c.3 0 .7-.3 1.2-.8l5-1.1v.5a38 38 0 00-6.2 2zm.8-10a4 4 0 00-1.4 1c0-.4-.7-.4-2-.1-.2-1 3.4-2.3 11-4l1-.3.2 1-8.8 2.5zm13.2-14.2c-.5 6-2.6 9.4-6.4 10.3V76l-3.4 1.3-1.5.3c-.7.2-1.4.2-2 0l-.3-1.4c-.1-.4 4.7-7.1 14.4-19.9l1.2.2c.4 1.7-.3 5-2 9.7zm23.4-20h-.4v-1l1.9-.2v.5l-1.5.6zM220 143a6 6 0 00-3-.7l-.1-1.4c0-.5.2-.9.9-1 .6-.1 1 .3 1 1.3 1.7-2 2.6-3.1 2.8-3.1l1 .4c-.4 2.9-1.2 4.4-2.6 4.5zM323.4 34.9c-.5 0-1.5-1.4-3-4.5v-1c1 0 2 1.5 3 4.5v1zM322 24.1l-.4 1-14-5.9c9.3.4 14.2 2 14.4 5zm-59.3 51l-2 .2v-1l2-.2v1zM261 44.5h.5l.1 1.4c-.5 0-1 .7-1.8 2v-1c.8-1 1.2-1.9 1.2-2.4zm-4.2 9.8l.2 1.9h-.5l-.2-1.9h.5zm-2.2 3.5h1c-.1 1.5-.5 2.4-1.2 2.4h-.6c.6-1 .9-1.8.8-2.4zm-1.6 4.9h.5v.4l-.9 1.5-1 .1v-.5c1 0 1.5-.6 1.4-1.5zm-1.6 4.3l-.3 2.5h-.5l-.1-2.4h1zm-16.1 46c-.7 3-1.3 4.7-2 4.8v-.4c-.2-1.6.5-3.1 2-4.5zm-3 6.3v.4c.1.7-.2 1-.9 1.1v-.5c0-.5.3-.8.9-1zm-.8 13.3l1.5-.1v.5c-.3 0-.8.2-1.5.6h-1c0-.5.3-.8 1-1zm42.4-13.1c-8.3 4.1-13.2 7-14.8 8.3-9 3.2-13.6 5.2-13.5 6-8 3.2-13.3 5.5-15.8 7-.6 0-1.5-.2-2.6-.7-.2-1.7.6-3 2.2-4 1.4 0 2.8.1 4 .6a44 44 0 017.8-2.5v-1l-3.1.3c.4-.5 3.3-1.9 8.7-4l1.5-.2v.4c-2.5.3-4 1-4.3 2.4 0 .6.4.9 1 .8 2-1.2 2.9-2 2.9-2.2 3.6-.6 13.7-6 30.2-15.8v1c0 .3-1.3 1.5-4.2 3.6zm-25.3 8.3c2.5-.2 4.5-1.2 6.3-2.8.6 0 1 .2 1 .8a24 24 0 00-6.7 2.9h-.5l-.1-.9zm41-31.4L277 106.5c-9.4 6.2-14.5 9.3-15.3 9.4-15 8.2-24.3 12.5-28 12.8h-.5c.5-1.7 7.2-15.3 20.1-41 5.6-.5 14.6-3.1 26.8-8l3-.3c6.3-.5 10.9.7 13.9 3.6l.1 1.9c-2.3 6.5-4.8 10.3-7.5 11.5zm-24.8-14l2-.1v.5l-2 .2v-.5zm28.6-4.8l1.5-.1c1.4.7 2.1 1.3 2.2 1.8v.4c-1.3 0-2.6-.6-3.7-2.1zm4-23c-1.3 1.6-5 4.3-10.8 8-2 .2-9.2 3-21.8 8.5a5 5 0 00-2-.3v-1c-.2-1.7.6-4 2.3-6.8 1-5.2 2.1-8 3.2-8.8L279 30.6c-.1-1.4 2.1-2.5 6.6-3.4h1.6v1.3l8.5-1.2c8.3-.7 12.6 1 13 5h1l-.2-2.3h1c2.4 1.2 3.7 2.8 3.8 4.7.1 1.4-.6 3-2 5-.6 0-1-.4-1-1.4h-1l-.4 3c-4.2 6.3-7.2 9.6-9.2 9.7-1.7 2.4-2.7 3.5-3.2 3.6zm4.4 15.7l-.1-1.4 1-.1 2 1.3c.1.6-.2 1-.8 1-1-.6-1.6-.8-2-.8zm-176 91.8l-1 .3-.8.7c.1.6.5.8 1.1.7.7-.2 1-.6.8-1.2l-.1-.5zm-3.8-7.4l.2.5c.6-.2.9-.5.7-1.1l-.1-.5c-.6.1-.9.5-.8 1.1zm26.8-50.3l.7-.5h-.3c-.3 0-.4.2-.4.5zm-.1-13l1-.3-.1-1-1.2.3.3 1zM416 129.5l-2.6-.3-.4 1v.5l15.3-1.3v-1l-12.3 1.2zm14-1.1v1h.2v-1h-.2zm64.2-8.4l.1 1 1.7.2-.1-1-1.7-.2zm-2.3.2c-11.5 2.5-13 2-15.4 2.3l.1 1 1-.2h.6l-.1-.1 1.2-.5c11.4-1.2 12.7-.8 12.6-2v-.5zm-69-16.7l-1-.4a17 17 0 00-1.3 4v.4c.9 0 1.6-1.4 2.3-4zM409 96v-.5h-.5l-1 .7.6.9c.7-.1 1-.4 1-1zm30.1 31v-.9h-.4v1h.4zm62.4-14h.7c.4 0 .6-.4.6-1l-.4-1c-2.7.3-3.9.4-6 1.6v-.5l-3.2.3c0-1-.3-1.5-.7-1.4l-1.6.1c-2 .2-2.8.1-3.8.8 0-.3-.1-.5-.3-.5l-1.8.2-1.1.6c0-.3-.1-.5-.3-.5l-.7.6v-.5l-2.5-.2h-.7l.1 1 1.3.3h1.2c.4.2.9.3 1.4.2l1-.5.1.4c-6 1.5-5.9 1.2-10 2-.4-.4-.8-.5-1-.5-.5 0-.8-.3-.8-.8l2-.2 1.5.4c1.7-.9 1.8-1.2 2.7-1.3v-1c-5.9 1.2-3.5.4-10.8 1l-.4.1v-1c9.3-1 6.2-.4 9.4-1.3 0 .3.2.5.3.5a2.2 2.2 0 011.3-.7h.7c3.3-.3 4.4.4 10.9-1.4v.4l1-.6h1c0-1 1.4-1.1 1.9-1.2v-1c-11.5 2.3-14.5 1.7-17.7 2.6v-.4c-3 .5-3.1.3-3.9.3a2 2 0 00-1 .6c0-.3 0-.5-.3-.5h-.2l-9.7 1.6c0-.2-.1-.4-.3-.3-5 1-3.7 1.2-10.4 1.8-.3 0-.7.2-1.3.5 0-.2-.2-.4-.5-.3l-4.1.3-2.8.7c0-.3-.2-.4-.5-.4l-4 .8h-.1c-.7 0 .3-.2-.2-.4l-.8.4c-1.2.2-.6 0-4.8 0l-7.2 1-2.8-.1c0 .2 0 .4-.4.4-3-.4-4.7-.9-4.7-1.4.4-3 1.1-4.5 2.1-4.6h.6l-.5 1h.5c1-.6 1.5-1.1 1.4-1.6v-1l-1 .1v-1c-.2-.7 0-1.3.2-1.8l2.2-3.6.1 1 1-.2v-.9l-.6-.9c.8-.7 1.4-1 1.9-1v-.6l-1.5.2-.1-1.5c2.9-6 4.2-9.4 4.2-10.4l1 .4c.6 0 1-.4.9-1.1h-1v-.3a3.6 3.6 0 01.3-2c1.6-1.7 2.3-3.3 2.2-5 .3 0 .4.1.5.5 1.3-.8 2.3-2.8 3-6.1 2.4-4.3 5.7-12.7 10-25.4 8.4-22.4 8-24.8 9.2-30h-1c.1.7 0 1.3-.3 2-.7-.3-1.2-.5-1.6-.4v-.5c-.2-1.9.6-4.2 2.4-7h.5l.8 3.3h1l.7-4c0-.5-.4-.8-1.1-.8l-1 .6V5.7h-.4c-.8-.8-1.3-1.5-1.3-2l-5.4.5c0-.4-.2-1-.6-1.7 0-.5 1.2-1 3.7-1.4l1 .4 1-.6c.1.3.3.5.7.4l1-.6c0 .4.2.5.6.5h.5V0h-6l-1 .7V0c-25.4 2-39.9 3.2-43.3 3.6l-5.4-.1c0 .4-.3.6-1 .7l-1.2-.5-3.7 1c-.8 0-2.3 0-4.3-.2-.6.4-1.3.7-2.1.8l10.8-.7a5 5 0 01-2.6.8c-.9.1-1.6 0-2.2-.4-.8.4-3.5 1-8 2l-1-.5-17.8 2.7c-.7-.3-1.5-.4-2.4-.3-1 0-2.5.4-4.7 1l-8.5 3.5.6 1.1c.4 0 1-.3 1.7-.7l3 .3-.3 2.8c-2.8 1.3-4.4 3.1-4.9 5.5-4.2 1.8-6.3 3.1-6.3 4v.4h.7l1.1-.6 1.4 1.6.2 2.2c0 .6-7 15.5-21.2 44.5a686.2 686.2 0 00-19.3 46.1c-4.2 1.2-6.6 2.9-7.3 5.1 0 .8 1.3 1.3 3.7 1.4l.2 1.1-1.1 1.9.1 2.1c.2 1.2 3.2 2 9.2 2.7 0-.4.2-.6.6-.7.1 1.4-.3 4-1.1 8h.6c2.5-3.5 3.7-5.8 3.6-7.1h.5c.6 0 1.2.6 2 2-.8.4-3.4 6.4-8 18.1l.7 1.1h.6c5.6-14.1 9-21.9 10.5-23.4 7.3-.6 20-1.9 37.9-3.8l1.1-.7c0 .4.3.6.7.5h1.2l1-.8c.1.4.4.6.8.6l13.6-1.2c3.5-.3 5.2-1.4 5-3.3 0-.5 2.2-1 6.4-1.6.5 0 1 0 1.9.3 0-.3 2.1-.7 6.4-1 .1-2.3.9-3.5 2.1-3.6v-1.1c-1.3 0-2.6.4-4.2 1-2.9-.2-4.7-.5-5.4-.7a5 5 0 01-1.8.6l-9.4.3-1.2.7c0-.4-.2-.5-.6-.5h-.6l-1.2.6c0-.3-1-.6-3-.8l-1.2.7-2.3.2v-.6c12.1-1.4 18.1-3 18-5 .8 0 1.2.3 1.3 1.1l3.5-.9-.1-1-29.2.7c0 .4-.1.6-.5.6l-3.6-.3c-.9.1-1.6.4-2.2.8l-1.4-.5c-3.6.4-6.4.8-8.2 1.4-2.5-.2-5.2-.2-8.3 0l-6.5.7-3-.4c-.2-2 3.5-11.4 11.2-28.4 2.3-5.8 4.3-9.4 6.3-10.7.4 0 1 0 1.8.4l4.7-1.6 2.4.4c4-.3 8.6-1.5 14-3.4 1.3-.1 2.3 0 3 .2l3.5-.8 10.6-.9c4.5-.4 9.4-1.4 14.7-3l-.1-1c-2 .1-3-.2-3-1-.2-1.5-1.6-2.1-4.4-1.9l-.1-1 3-1 7.6-.6-.2-1-4.7-.2-.1-1.1 3-.3c.7 0 1-.5 1-1.2-4 .1-6 0-6-.6-27.7 1.3-41.6 1.6-41.6.7-.5 0-1 .3-1.8.8l-.7-1.1c7.3-15.6 11.7-23.5 12.9-23.6 0 .6-.3 1.6-1 3l.1.4 1.2-.1c3-7 5.4-10.6 7.4-10.7 8.7-.8-1.2-1.3 17.4-4.2.8.3 1.3.5 1.7.4 7.3-1.5 17.4-3 30.5-4.6v-1.1l-7 .6-.1-1c.8-.1 1.5-.4 2-.8l.1.6c.4 0 .9-.3 1.6-.8a5 5 0 012.7.3c2.5-.6 4.4-1 5.9-1.1l4.3-.4c1-.7 1.6-1.3 1.5-1.9v-.5c-1.1.1-2.4 0-3.8-.2 0-.6.2-1 1-1.2l8-.8 3.8-1c0 .5.2.6.5.6.4 0 .9-.3 1.6-.7h.6c-.5 1-1 2.6-1.7 4.5h-1c0-.7-.3-1.3-.6-1.9h-.5C432 39 427.6 51.8 418.6 72.8c-1.7 5.4-3.1 8.4-4.3 9 0 .6.4 1 1 .8.3 2.7-.3 5.3-1.8 7.9a78.6 78.6 0 01-8.4 19.9l1 5.7c0 .6-.4 1-1 1l-1 .1c-.1-1.6-.7-2.3-1.7-2.2h-.6c-1.2 2-2.2 4.3-2.9 7h1c1.3-1 2-2 1.8-3.1l2-.2 1.1.4c-.9 1.4-1.3 2.6-1.2 3.4l.5 1-1.3 3v.5c1.2-.1 2.5.2 3.8 1 .9 0 1.9-.5 3-1.2l12.6-.1 3.7-1.3c4.5 0 5.2 0 9-.3l1.6-.1.9-.6v.5c4-.3 4.3 0 7.5.3v.5l-2.2.2v1c.7-.1 1.3-.3 1.8-.7.6 0 1 .2 1 1-1 0-2 .2-3 .6l-1-.3c-1.6.4-1.3.5-2.3.6l-1.6-.3c0 .2 0 .4-.4.4 0 .6.4 1 1 .9l1.6-.2 8.3-.7 3.1-.7c0 .3.1.4.4.4l1.5-.6 2.9-.2c2.2-.2 2.1-.3 6.9-1 0-.4 0-.5.3-.5v.4c7.8-1.3 8.3-1.4 9.5-1.8l.1.2c2-.5.9-.3 1.4-.7 0 .3.1.5.3.5l1.4-.1v-1l-2.8-.1h-.8c-1.8.4-1.9.2-3 .3l-7 .4v-.5l3.8-.5 1.4-.2.8-.5v.5c5.5-.5 7.4.9 32.6-4.5 1.4-.1 1.3-1.2 2.1-3.6a2.3 2.3 0 01-1.3-.3c-2 .8-3.2.4-7.2 1-.3.1-.6-.2-.7-.8v-.4h3.8c.7 0 2.1 0 4.2-1.3 0 .4-.8.6-.3.5zm-186.2 3l-1.8.2c0-.8.9-3.5 2.9-8.1l1.1-.1a31 31 0 01-2.2 8zm2.1-8.6v-.5c0-.6.4-1 1.2-1.2v.5c0 .7-.3 1.1-1.2 1.2zm23.7 18.3v.4l-3 .3v-.5l3-.2zm-3.6-.3c0 .6-.8 1.2-2.8 2l-3.6-.3h-1.2l-.1-1 7.7-.7zm24-110l-1.9.1v-.6c0-.6.3-1 1-1.2h.7l1.2.4c0 .8-.3 1.2-1 1.3zm27-5.3h.5l.1 1-1.6.2c0-.6.2-1 1-1.2zm-6.8 2.3l-2.7-.3v-.5c3.4-.3 4.6-.6 6.8-1.2 0 .4.4.5 1 .5l.1 1-1 .2c-.8 0-1.6 0-2.2-.4-.6.4-1.3.7-2 .7zm3.3 9.8v-.5l4.3-.4v.5l-4.3.4zm4.7-3.7v-.7l2-.1v.6l-2 .2zm.5-7.5h-.6l.5-1 4.8-.5v.6c-1.2 0-2.8.4-4.7 1zm2.4 10.5v-1.1l2-.2c.8 0 1.2.3 1.2 1l-3.2.3zM405.4 4l-2.7.8h-.5c-1.3.1-3 0-4.9-.1 3.5-.2 6.9-.5 8.1-.7zm-2.9 12.1v.5l-3.7.3v-.5l3.7-.3zm6.2 3c0-.5-.8-.8-2.3-1l-3.7 1-2.9.2c-.6-.5-1-.8-1-1l3.3.2 7.5-1.2 3.8.1v.6c-1.8.2-3.4.6-4.7 1zm38.5-10h.9c1.3-1.3 2.8-2.3 4.5-3-1.4 6-3.5 10.4-6.4 13.3L444 18a69 69 0 003.2-9zm-6.5 11.1h.5c-.7 1.4-1.3 2-1.9 2.1V21l1.4-.7zm-4.2 10c1-4 2-6.3 2.9-7v.5c-.5 3.8-1.3 5.8-2.4 6l.2 2.4c-1 1.3-1.4 2.2-1.3 3h-.5l-.4-3.3c.7 0 1.1-.6 1.5-1.5zm-1.6 5.5c0 .6-.4 1.9-1.1 4h-.6v-1.5c.6-1.6 1.2-2.5 1.7-2.5zm-30.6 88.6v-.5h1l.1 1.4c-.5 0-1-.3-1-1zm43.6 1c0-.2-.1-.4-.5-.4l-2.4.3v-.5h.1l5.9-.5v.5c-1.7 0-2.7.3-3 .7zm-2.9-1.1c.3 0 .1.2 0 .3 0 0-.2-.2 0-.3zm.3-6.8l-3.2.2v-.5l2.9-.2 2.6-.7c0 .3.2.5.5.4 3-.5 2.8-.7 4.2-.8.5 0 .8.3.9.9l-7.9.7zm11.4-1c-1.8-.2-2-.3-3.2-.2v-.5l2.9-.2v.4c-.3 0 .8.1.3.5zm.2-.5v-.5l1.6-.1v.4l-1.6.2zm3.6-.3v-.5c.2 0 .6-.2 1-.6.8 0 1.3.5 1.3 1.1h-2.3zm4.5-.6v-.5l1.8-.2v.5l-1.8.2zm2.6-.2c0-.6.2-1 .7-1l.7.8c0-.3 0-.4.3-.4l.5.9-2.2-.3zm37.3-4.4v-.1zm.6-.5c.3-.2.5-.4-.2-.5-.4.4.3.5-.4.5v.4l.4-.3-.4.3-.8 1 1.6-.5h.2v-1h-.4zm2.8 2.1h-.3v1l2.3-.2c0-.6-1.5-.8-2-.8z" /></svg>