<svg xmlns="http://www.w3.org/2000/svg" viewBox="0 0 24 24"><path d="M13.98 11.08h2.12a.2.2 0 0 0 .19-.19V9.01a.2.2 0 0 0-.19-.19h-2.12a.2.2 0 0 0-.18.19v1.88c0 .1.08.19.18.19m-2.95-5.43h2.12a.2.2 0 0 0 .18-.19V3.57a.2.2 0 0 0-.18-.18h-2.12a.2.2 0 0 0-.19.18v1.9c0 .1.09.18.19.18m0 2.71h2.12a.2.2 0 0 0 .18-.18V6.29a.2.2 0 0 0-.18-.18h-2.12a.2.2 0 0 0-.19.18v1.89c0 .1.09.18.19.18m-2.93 0h2.12a.2.2 0 0 0 .18-.18V6.29a.2.2 0 0 0-.18-.18H8.1a.2.2 0 0 0-.18.18v1.89q.01.16.18.18m-2.96 0h2.11a.2.2 0 0 0 .19-.18V6.29a.2.2 0 0 0-.19-.18H5.15a.2.2 0 0 0-.19.18v1.89q.01.16.19.18m5.89 2.72h2.12a.2.2 0 0 0 .18-.19V9.01a.2.2 0 0 0-.18-.19h-2.12a.2.2 0 0 0-.19.19v1.88c0 .1.09.19.19.19m-2.93 0h2.12a.2.2 0 0 0 .18-.19V9.01a.2.2 0 0 0-.18-.19H8.1a.2.2 0 0 0-.18.19v1.88c0 .1.08.19.18.19m-2.96 0h2.11a.2.2 0 0 0 .19-.19V9.01a.2.2 0 0 0-.18-.19H5.14a.2.2 0 0 0-.19.19v1.88c0 .1.08.19.19.19m-2.92 0h2.12a.2.2 0 0 0 .18-.19V9.01a.2.2 0 0 0-.18-.19H2.22a.2.2 0 0 0-.19.19v1.88c0 .1.08.19.19.19m21.54-1.19c-.06-.05-.67-.51-1.95-.51q-.51 0-1.01.09a3.8 3.8 0 0 0-1.72-2.57l-.34-.2-.23.33a5 5 0 0 0-.6 1.43q-.36 1.47.4 2.66a5 5 0 0 1-1.75.42H.76a.75.75 0 0 0-.76.75 11 11 0 0 0 .7 4.06 6 6 0 0 0 2.4 3.12c1.18.73 3.1 1.14 5.28 1.14q1.47 0 2.93-.26a12 12 0 0 0 3.82-1.4 11 11 0 0 0 2.61-2.13c1.25-1.42 2-3 2.55-4.4h.23c1.37 0 2.21-.55 2.68-1q.46-.46.7-1.06l.1-.28Z"/></svg>
