<svg width="2500" height="2197" viewBox="0 0 256 225" xmlns="http://www.w3.org/2000/svg" preserveAspectRatio="xMidYMid"><path d="M78 80.6l48.5-28a4 4 0 014 0l48.5 28a4 4 0 012 3.4v56a4 4 0 01-2 3.5l-48.5 28a4 4 0 01-4 0l-48.5-28a4 4 0 01-2-3.4V84a4 4 0 012-3.4" /><path d="M254.4 107.4l-58-101c-2.2-3.7-6-6.4-10.3-6.4H69.9c-4.2 0-8.1 2.7-10.2 6.3L1.6 107.3a12 12 0 000 12l58 100.2c2.2 3.6 6 5.5 10.3 5.5h116.2c4.2 0 8.1-1.8 10.2-5.5L254.4 119c2.1-3.6 2.1-8 0-11.6zm-48 48.6c0 1.5-1 2.9-2.3 3.6l-74 42.7a4.2 4.2 0 01-4.2 0l-74-42.7a4.3 4.3 0 01-2.2-3.6V70.6c0-1.5.9-2.8 2.2-3.6l74-42.7a4.2 4.2 0 014.2 0L204 67c1.3.8 2.2 2.1 2.2 3.6V156z" /></svg>