<svg width="256" height="283" xmlns="http://www.w3.org/2000/svg"><path d="M246.4 139.2a32.79 32.79 0 00-26.69-32.17L256 0H84.47l36.34 107.25a32.8 32.8 0 00-25.63 31.95c0 11.73 6.2 22.02 15.48 27.8a109.7 109.7 0 01-15.83 18.65 99.23 99.23 0 01-31.9 20.5c-11.65-7.32-16.57-21.11-11.46-33.13l.4-.94.75-1.77a32.8 32.8 0 0022-30.92 32.78 32.78 0 00-32.75-32.74 32.78 32.78 0 00-32.74 32.74c0 9.12 3.74 17.37 9.77 23.3-1.1 2.34-2.24 4.7-3.42 7.13-5.51 11.32-11.76 24.16-14.12 38.4-4.7 28.3 2.87 50.93 21.31 63.7 11.19 7.76 22.55 10.8 33.98 10.8 21.53 0 43.3-10.8 64.6-21.39 15.35-7.62 31.21-15.5 46.88-19.36 5.83-1.44 11.83-2.3 18.18-3.22 12.6-1.82 25.62-3.7 37.15-10.38a51.4 51.4 0 0025.12-35.64 53.06 53.06 0 00-6.98-36.48 32.54 32.54 0 004.8-17.05zm-12.85 0a19.91 19.91 0 01-19.9 19.9 19.91 19.91 0 01-19.88-19.9 19.91 19.91 0 0119.89-19.89 19.91 19.91 0 0119.89 19.9zm4.52-126.35l-32.05 94.52c-1.38.33-2.74.75-4.05 1.25L170.3 44.06l-31.75 64.2a32.34 32.34 0 00-4.23-1.16L102.4 12.85h135.67zM127.93 119.31a19.91 19.91 0 0119.89 19.9 19.91 19.91 0 01-19.9 19.88 19.91 19.91 0 01-19.88-19.89 19.91 19.91 0 0119.89-19.89zm-86.06.2a19.91 19.91 0 0119.9 19.88 19.91 19.91 0 01-19.9 19.9 19.91 19.91 0 01-19.89-19.9 19.91 19.91 0 0119.9-19.89zm194.04 71.02a38.57 38.57 0 01-18.89 26.72c-9.39 5.44-20.63 7.06-32.54 8.78-6.38.92-12.98 1.87-19.43 3.46-17.04 4.2-33.55 12.4-49.51 20.33-31.94 15.87-59.53 29.57-85.55 11.54-19.05-13.2-18.17-37.64-15.95-51.03 2.06-12.4 7.62-23.83 13-34.88l2.72-5.65c2.67 1.07 5.5 1.8 8.46 2.13-5.47 18.07 3.14 37.72 21.2 47l2.48 1.27 2.62-.93C78.81 214.18 91.98 206 103.65 195c7.55-7.12 14.04-15 19.37-23.42a32.78 32.78 0 0037.65-32.38c0-9.7-4.25-18.44-10.99-24.44l20.58-41.61 20.79 42.4a32.65 32.65 0 00-10.14 23.65 32.78 32.78 0 0032.75 32.75c6.93 0 13.37-2.18 18.67-5.87 3.68 7.53 5.05 16 3.58 24.45z" /></svg>