<svg xmlns="http://www.w3.org/2000/svg" width="256" height="283">
    <path
        d="M246.4 139.2a33 33 0 0 0-26.7-32.2L256 0H84.5l36.3 107.3a33 33 0 0 0-25.6 31.9c0 11.7 6.2 22 15.5 27.8a110 110 0 0 1-15.9 18.7A99 99 0 0 1 63 206.2 27 27 0 0 1 51.5 173l.4-1 .7-1.7a33 33 0 0 0 22-31A33 33 0 0 0 42 106.7 33 33 0 0 0 9 139.5c0 9.1 3.8 17.4 9.8 23.3l-3.4 7.1C10 181.1 3.7 194 1.4 208.2c-4.7 28.3 2.8 51 21.3 63.7a58 58 0 0 0 34 10.8c21.5 0 43.2-10.8 64.5-21.4 15.4-7.6 31.3-15.5 47-19.3q8.7-2 18.1-3.2c12.6-1.9 25.6-3.7 37.2-10.4a51 51 0 0 0 25-35.7 53 53 0 0 0-6.9-36.4 33 33 0 0 0 4.8-17.1m-12.8 0a20 20 0 0 1-20 19.9 20 20 0 0 1-19.8-19.9 20 20 0 0 1 19.9-19.9 20 20 0 0 1 19.9 20M238 12.9l-32 94.5q-2.2.5-4.1 1.2l-31.7-64.5-31.7 64.2-4.3-1.2-31.9-94.2zM127.9 119.3a20 20 0 0 1 20 20 20 20 0 0 1-20 19.8 20 20 0 0 1-19.9-19.9 20 20 0 0 1 20-19.9m-86 .2a20 20 0 0 1 19.9 19.9 20 20 0 0 1-20 19.9 20 20 0 0 1-19.8-20 20 20 0 0 1 19.9-19.8m194 71a39 39 0 0 1-18.9 26.8c-9.4 5.4-20.6 7-32.5 8.7-6.4 1-13 1.9-19.5 3.5a248 248 0 0 0-49.5 20.3C83.6 265.7 56 279.4 30 261.4c-19-13.2-18.2-37.7-16-51 2.1-12.5 7.7-23.9 13-35l2.8-5.6q4 1.6 8.4 2.1a40 40 0 0 0 21.2 47l2.5 1.3 2.6-1q21.5-7.6 39.2-24.2 11.3-10.7 19.3-23.4a32.8 32.8 0 0 0 37.7-32.4c0-9.7-4.3-18.4-11-24.4L170.3 73l20.7 42.4a33 33 0 0 0-10 23.7 33 33 0 0 0 32.7 32.8q10.5-.2 18.6-6a40 40 0 0 1 3.6 24.5" />
</svg>