<svg xmlns="http://www.w3.org/2000/svg" width="24" height="24" viewBox="0 0 382 382">
    <path
        d="M347.4 0H34.6A34.6 34.6 0 0 0 0 34.6v312.8A34.6 34.6 0 0 0 34.6 382h312.8a34.6 34.6 0 0 0 34.6-34.6V34.6A34.6 34.6 0 0 0 347.4 0M118.2 329.8a10 10 0 0 1-10 10.1H65.4a10 10 0 0 1-10.1-10V150.3a10 10 0 0 1 10-10h42.9a10 10 0 0 1 10 10zM86.8 123.4a40.7 40.7 0 1 1 0-81.3 40.7 40.7 0 0 1 0 81.3zm255.1 207.2c0 5.1-4.1 9.3-9.2 9.3h-46a9.3 9.3 0 0 1-9.2-9.3v-84.1c0-12.6 3.7-55-32.8-55-28.4 0-34 29-35.2 42v97.2c0 5-4.2 9.2-9.3 9.2h-44.4a9.3 9.3 0 0 1-9.2-9.2V149.6c0-5.1 4-9.2 9.2-9.2h44.4c5.1 0 9.3 4.1 9.3 9.2v15.7c10.5-15.8 26-28 59.3-28 73.5 0 73.1 68.8 73.1 106.5z" />
</svg>