<svg xmlns="http://www.w3.org/2000/svg" viewBox="0 0 24 24"><path d="M12 24q-.49 0-.92-.25l-2.94-1.73c-.44-.25-.22-.34-.08-.39.58-.2.7-.25 1.33-.6q.1-.05.22.02l2.25 1.33c.08.05.2.05.27 0l8.8-5.07a.3.3 0 0 0 .13-.24V6.92q0-.16-.13-.24l-8.8-5.07a.3.3 0 0 0-.27 0L3.08 6.68a.3.3 0 0 0-.14.24v10.15q0 .16.14.24l2.4 1.39c1.31.65 2.11-.12 2.11-.9V7.8c0-.15.12-.26.26-.26h1.11c.14 0 .26.12.26.26V17.8c0 1.74-.95 2.74-2.6 2.74-.51 0-.91 0-2.03-.55l-2.31-1.32a1.9 1.9 0 0 1-.92-1.6V6.91c0-.66.35-1.27.92-1.6l8.8-5.08c.55-.32 1.3-.32 1.84 0l8.8 5.08c.57.33.92.94.92 1.6v10.15c0 .66-.35 1.27-.92 1.6l-8.8 5.08Q12.5 24 12 24m7.1-10c0-1.9-1.29-2.41-3.99-2.77-2.73-.36-3-.55-3-1.19 0-.52.23-1.23 2.25-1.23 1.8 0 2.47.39 2.75 1.6q.05.19.25.2h1.14q.1 0 .18-.07a.3.3 0 0 0 .07-.2c-.18-2.1-1.57-3.08-4.39-3.08-2.5 0-4 1.06-4 2.84 0 1.92 1.49 2.45 3.9 2.7 2.87.27 3.1.7 3.1 1.26 0 .98-.8 1.4-2.65 1.4-2.32 0-2.84-.58-3-1.74a.26.26 0 0 0-.26-.22H10.3a.25.25 0 0 0-.25.26c0 1.48.8 3.25 4.65 3.25 2.8 0 4.39-1.1 4.39-3.02"/></svg>
