<svg xmlns="http://www.w3.org/2000/svg" width="400" height="400">
    <path
        d="M161.7 262.3v-22.4l-62.4 17.6s4.6-26.7 37.1-36a54 54 0 0 1 25.3-1.4v-92h31.2a187 187 0 0 0-9.5-24.2c-4.5-9.3-9.2-3.1-19.9 5.8a148 148 0 0 1-54.8 27.2 147 147 0 0 1-61.1 4c-13.6-2.3-20.8-5.3-20.1 5 .6 9.2 2.8 23.3 7.7 42C46 228.4 81.7 306.5 149 288.3a68 68 0 0 0 38.6-26zM61 188.5l47.8-12.6s-1.3 18.4-19.3 23.1S61 188.5 61 188.5" />
    <path
        d="M341.8 129.2a191 191 0 0 1-79.2-5 191 191 0 0 1-71-35.3c-13.8-11.5-19.9-19.5-25.8-7.4-5.3 10.7-12 28-18.5 52.4-14.1 52.6-24.7 163.8 62.6 187.2s133.6-78.2 147.7-130.9c6.6-24.3 9.4-42.7 10.2-54.6.9-13.4-8.3-9.5-26-6.4m-175.3 43.6s13.7-21.4 37-14.8 25.2 32.4 25.2 32.4zm57 96C182.3 256.6 176 224 176 224l110.2 30.8s-22.3 25.8-62.9 14zm38.9-67.3s13.7-21.4 37-14.7 25.2 32.4 25.2 32.4z" />
    <path
        d="m139.9 246-40.6 11.5s4.4-25 34.3-35l-23-86.2-2 .6a147 147 0 0 1-61 4c-13.6-2.3-20.8-5.3-20.1 5 .6 9.2 2.8 23.3 7.7 42C46 228.4 81.7 306.5 149 288.3l2-.6zM61 188.5l47.8-12.6s-1.3 18.4-19.3 23.1S61 188.5 61 188.5" />
    <path
        d="m225.3 269.2-1.9-.5c-41-12-47.3-44.7-47.3-44.7l56.8 15.9 30-115.6-.3-.1a191 191 0 0 1-71-35.3c-13.8-11.5-19.9-19.5-25.8-7.4-5.3 10.7-12 28-18.5 52.4-14.1 52.6-24.7 163.8 62.6 187.2l1.8.4zm-58.8-96.4s13.7-21.4 37-14.8 25.2 32.4 25.2 32.4z" />
</svg>