<svg xmlns="http://www.w3.org/2000/svg" width="226" height="160">
    <path
        d="M221.48 49.76H172.7V.98h48.78zm-53.67 0h-48.78V.98h48.78zm-53.66 0H65.37V.98h48.78zm107.33 53.66H172.7V54.63h48.78zM167.81 103.42h-48.78V54.63h48.78zm0 53.65h-48.78V108.3h48.78zm53.67 0H172.7V108.3h48.78zm-107.33 0H65.37V108.3h48.78zM13.05 68.35q2.45 0 4.54.66a8.99 8.99 0 0 1 6.02 5.25q.86 1.95.86 4.7 0 2.62-.73 4.6a9 9 0 0 1-2.1 3.31q-1.35 1.3-3.27 1.97-1.9.65-4.22.65a10 10 0 0 1-3.28-.53v6.8q-.4.13-1.31.25a10 10 0 0 1-3.49.04 3 3 0 0 1-1.18-.5 2 2 0 0 1-.74-1.02 5 5 0 0 1-.25-1.64V73.23q0-1.11.45-1.8a5 5 0 0 1 1.32-1.28q1.27-.82 3.15-1.3 1.88-.5 4.22-.5M13.11 84q4.23 0 4.22-5.04 0-2.62-1.06-3.9-1.03-1.26-3-1.26-.77 0-1.39.2-.6.17-1.06.41v9.02q.5.24 1.06.4.59.18 1.23.17m27.37-7.74q0-1.27-.73-1.85a2.8 2.8 0 0 0-1.93-.61q-.83 0-1.64.2-.78.2-1.35.62v14.22q-.4.12-1.31.24a13 13 0 0 1-3.45 0 3 3 0 0 1-1.18-.49 2.6 2.6 0 0 1-.78-.98q-.25-.66-.25-1.68v-12.3q0-1.1.45-1.8a5 5 0 0 1 1.31-1.27q1.4-.98 3.49-1.6 2.13-.6 4.71-.61 4.63 0 7.13 2.05 2.5 2 2.5 5.61v12.83q-.4.12-1.31.24a13 13 0 0 1-3.44 0 3 3 0 0 1-1.2-.49 2.6 2.6 0 0 1-.77-.98q-.25-.66-.25-1.68zm20.41-7.91q2.46 0 4.55.66a9.5 9.5 0 0 1 3.64 1.92 9 9 0 0 1 2.38 3.32q.86 1.97.86 4.71 0 2.62-.74 4.6a9 9 0 0 1-2.09 3.31q-1.35 1.31-3.27 1.97-1.9.66-4.22.65a10 10 0 0 1-3.28-.53v6.8q-.4.13-1.31.25a10 10 0 0 1-3.49.04 3 3 0 0 1-1.18-.5 2.2 2.2 0 0 1-.74-1.02 5 5 0 0 1-.25-1.64V73.23q0-1.11.45-1.8a5 5 0 0 1 1.31-1.28q1.27-.82 3.16-1.3 1.88-.5 4.22-.5M60.98 84q4.23 0 4.22-5.04 0-2.62-1.06-3.89-1.03-1.27-3-1.27-.77 0-1.39.2-.6.17-1.06.41v9.02q.5.24 1.06.4.59.17 1.23.17m24.3-15.65q1.68 0 3.28.5 1.64.45 2.82 1.39 1.23-.82 2.75-1.36 1.56-.53 3.73-.53 1.56 0 3.03.41 1.52.4 2.66 1.31 1.2.86 1.89 2.34.7 1.43.7 3.52v12.9a12.75 12.75 0 0 1-3.11.37 10 10 0 0 1-1.65-.12 3 3 0 0 1-1.19-.49 2.6 2.6 0 0 1-.77-.98q-.25-.66-.25-1.68v-9.8q0-1.22-.7-1.76a3 3 0 0 0-1.88-.57q-.58 0-1.23.29-.66.24-.98.53.03.16.04.33v13.89q-.45.12-1.36.24a12 12 0 0 1-3.4 0 3 3 0 0 1-1.19-.49 2.6 2.6 0 0 1-.77-.98q-.25-.66-.25-1.68v-9.8q0-1.22-.78-1.76-.74-.57-1.8-.57a3 3 0 0 0-1.27.25 7 7 0 0 0-.9.4v14.39a10 10 0 0 1-1.31.24 13 13 0 0 1-1.8.13q-.9 0-1.65-.13a3 3 0 0 1-1.18-.49 2.6 2.6 0 0 1-.78-.98q-.25-.66-.25-1.68V73.55q0-1.1.45-1.76.5-.66 1.31-1.23 1.4-.98 3.45-1.6a15 15 0 0 1 4.34-.61" />
</svg>