<svg xmlns="http://www.w3.org/2000/svg" width="226" height="160">
    <path
        d="M221.5 49.8h-48.8V1h48.8zm-53.7 0H119V1h48.8zm-53.6 0H65.4V1h48.8zm107.3 53.6h-48.8V54.6h48.8zm-53.7 0H119V54.6h48.8zm0 53.7H119v-48.8h48.8zm53.7 0h-48.8v-48.8h48.8zm-107.3 0H65.4v-48.8h48.8zM13 68.4q2.4 0 4.5.6a9 9 0 0 1 6 5.3q.9 2 .9 4.7 0 2.6-.8 4.6a9 9 0 0 1-2 3.3q-1.4 1.3-3.3 2-2 .6-4.3.6A10 10 0 0 1 11 89v6.8l-1.3.2A10 10 0 0 1 6 96l-1.2-.5a2 2 0 0 1-.8-1L4 93V73.2q0-1 .4-1.8l1.4-1.2q1.2-.9 3.1-1.3t4.2-.5m.1 15.6q4.2 0 4.2-5 0-2.7-1-4t-3-1.2q-.8 0-1.4.2l-1 .4v9q.4.3 1 .4zm27.4-7.7q0-1.3-.7-1.9a3 3 0 0 0-2-.6l-1.6.2q-.8.2-1.4.6v14.2q-.4.2-1.3.3a13 13 0 0 1-3.4 0l-1.2-.5-.8-1Q28 87 28 86V73.6q0-1 .4-1.8l1.3-1.2q1.4-1 3.5-1.6t4.7-.6q4.7 0 7.2 2t2.5 5.6v12.8q-.4.2-1.4.3a13 13 0 0 1-3.4 0l-1.2-.5-.8-1q-.2-.6-.2-1.7zm20.4-8q2.5 0 4.5.7a10 10 0 0 1 3.7 2 9 9 0 0 1 2.4 3.2q.8 2 .8 4.8 0 2.6-.7 4.6a9 9 0 0 1-2.1 3.3q-1.4 1.3-3.3 2t-4.2.6a10 10 0 0 1-3.3-.5v6.8l-1.3.2a10 10 0 0 1-3.5 0l-1.2-.5-.7-1-.3-1.6V73.2q0-1 .5-1.8l1.3-1.2q1.3-.9 3.2-1.3 1.8-.5 4.2-.5m0 15.6q4.3 0 4.3-5 0-2.7-1-4t-3-1.2q-.8 0-1.5.2l-1 .4v9l1 .4q.6.2 1.3.2m24.3-15.6q1.7 0 3.3.4t2.8 1.4q1.2-.8 2.7-1.3t3.8-.6q1.5 0 3 .5t2.6 1.3q1.2.8 2 2.3.6 1.4.6 3.5v13l-3 .3-1.7-.1-1.2-.5-.8-1q-.2-.6-.2-1.7v-9.8q0-1.2-.7-1.7a3 3 0 0 0-2-.6q-.5 0-1.1.3t-1 .5v14.2q-.4.2-1.3.3a12 12 0 0 1-3.4 0l-1.2-.5-.8-1q-.2-.6-.2-1.7v-9.8q0-1.2-.8-1.7t-1.8-.6l-1.3.3-.9.4v14.3l-1.3.3-1.8.1-1.7-.1-1.1-.5-.8-1q-.3-.6-.3-1.7V73.5q0-1 .5-1.7t1.3-1.2q1.4-1 3.4-1.6a15 15 0 0 1 4.4-.7" />
</svg>