<svg xmlns="http://www.w3.org/2000/svg" width="2500" height="2500" viewBox="0 0 256 256">
    <path
        d="M255.9 121.1q-.1-5-.4-10-.2-5-.6-10-.8-7-2.3-13.8-1.3-5.5-3.4-10.8-2.3-6.3-5.3-12.4c-3.4-6.3-7.8-12-11.9-18-2.6-3.8-6-7-8.7-10.8a27 27 0 0 0-5.8-5.9 152 152 0 0 0-19.2-13q-3.5-1.9-7.2-3.5c-2.8-1.3-5.5-2.9-8.6-3.5l-2.2-.6-5.9-2.1q-4.5-1.6-9-2.9t-9.3-1.7q-5.3-.6-10.5-1-3.4-.5-6.6-.6-5-.2-10-.3-2.4-.2-5-.2-3.7.2-7.5.7l-7.2 1-8.5 1-8.1 1.2-2.9.7q-3 .4-6.3 1.3a102 102 0 0 0-21 8.4q-4.8 2.9-9.4 6a101 101 0 0 0-16.6 13.3q-2 2.1-3.8 4.6l-6.4 7.5-5 6.7q-4.3 6-7.7 12.4L10.9 70q-2 3.8-3.9 7.8a36 36 0 0 0-2 5.8L1.4 96.4A51 51 0 0 0 0 108q0 5.2.6 10.3c.1.9-.4 2 .6 2.6v.5q-.4.8.5 1.2v.1h-.4c-.3.8.6 1.4.3 2.3q0 .3.4.8v.8q.2 1.2.4 2.4c0 .7.6 1.3.7 2q.1.4-.1.8-.9.9.3 1.5.4.2.4.6l-.2 1.5q.2.3.1.6t-.1.7q1 2 1 4.4 0 .5.4 1.2h.5l-.5 1.6 1.2-.5.8 3.1.5.5q0 .4-.2.6.3 2.3 1.1 4.5h.3l-.7-4.8v-.5l.2-.1.3 1c.7 0 1.7.4 2.4.4l.3-.7-1.5-1.8q.1.8 0 1.2l-1.2-.6 1.2-1.3q.1-1.4-1.6-1.4.7-.4 1.6-.6l.3.7c.7-1.2-.4-2.2-.4-3.4.1-1.5-.8-3-1-4.5-.4-2.4-.4-6-.6-8.5l-.5-.5-.6 1.3q.5 3.1.7 6.2l-.1.1-1.2-5.8-.1 1.2q-.3 0-.8-.3.5 1.1 1 1.9-1.2-.3-1.4-.2v2.4c-.8-.8-1-1.5-1.5-2.1l-.4-2 .2-.2-.2-.8-.3-2.1.6-.4-.7-1 1.6.2v-.4c-.9-.8-.3-1.4 0-2.1.2-.4.8-.5 1-.8.7-1.3 1.8-2.3 1.8-4q.1-1.2.4-2.4l.4-4.4c.2-2 0-3.8.4-5.6a117 117 0 0 1 4.9-15.5q1.8-5 4.1-10 3.6-6.8 7.6-13.7L30 58a70 70 0 0 1 14.6-17.7c3.5-3.1 6.7-6.3 10.5-9.2a106 106 0 0 1 29-15.7c2.9-1.1 6-1.6 9-2.6q5.2-1.6 10.6-1.7 3.5 0 7-.6l6.3-.6-.4.7-3 4.1q-1.1 1.8-2.4 3.5l-4.1 5.5q-2.9 4.3-5.9 8.7-3.1 4-6.5 8-4.1 5.6-8.4 11.2-3.9 5.3-7.8 10.5-3.3 4.7-6.4 9.6l-9.6 14.2-7.6 10.8-.7.5q-.4.2-.5.5-.2 1-.5 1.7-.9 2-2.1 3.8-.6 1-1.6 2l-.4-.2c.3-.8 1.8-1.3 1.1-2.6l-1.3 2-1 2c.3.3 1 .5.3 1l-.7 1.4h.1l.8-1 .3.2-1.2 2.4q-.8 1-1.9 1.7l.8.5c.3-.4.4-.2.6-.6.2.3.5-.1.5.1q.5-.5.6-.8a4 4 0 0 1 1.8-2l.8-.6q4-4 7.6-8.2 5.4-6.7 10.4-13.4 2.3-3 4.8-5.7l.4.2-.4 5.5-.7 9.7-.1 4q-.1.4-.3.9l.3 2.6-.9 9.6q.1 1 .5 2l-.5-.4c0 5 1 10 .2 14.9q.5-.1.5-.4l.3-1.8v-2.6c0-1.5.4-3.1.2-4.7a21 21 0 0 1 .2-5c.2-.7 0-1.5.4-2.4v1.3c-.1 5 0 9.9-.6 14.8-.1.4.2 1.2-.7 1.1l-.4.7c-.4.9.5 2-.3 2.8-.2.2.1 1 .2 1.5q0 .3 0 .4-.5.9.2.7.2 2.9.3 5.5h.3c1.1-3.3.4-6.7 1-10q.2 2 .1 4.2l-.1 6.6-.2 1.3q-.3 2-.8 3.6-.3 1.4-.2 3.2v3.3s.3.3.3.7c0 .7-.4 1.5 0 2.4l-.3.6q0 .3 0 .8l.2 1.3.2.3v-.7c1.5.2.8 1.5 1.4 2.2l-.6.3q.2.5.3 1 0 1-.2 2.2v9.1h.3l-.6.8-.4-.1v-11h-1.3c-.1 5.3.3 10-.6 14.8l-2.6.2-8 .1-9.5.1-4.8.2-6.3-.3q-4.7.1-9.5.4l-7 .1-4.6.4q-1 0-2.2.6h-1.4q-1.2.4-2.5.9-1.8.1-1.5 1.9v.8l-.6-.4h-.1q0 .4.3.8.6-.4 1.1-.6h1.2l-.5 1 1.6-.7v.7c1.3 0 2.4-.4 3.4-.2a69 69 0 0 0 17 2l9.6.3q4-.2 8-.3l11 .3 2.6-.1H72l16.8-.4 9.7-.4 9.9-.2 11.3-.2 8.5-.2q4.8-.1 9.6-.5 2.7-.1 5.2-.4l6.3-.6 9.5-.4q5.7-.4 11.7-.7 5.5-.1 11-.2l9.7-.3 5.4-.3 5.4-.2 9.4-.6 6-.1 9.6-.3 4 .3-1.6 1.4q.6 0 1 .4v.4h-1.3l-.5 1.5h1.5c-.6 0-1 .8-1.7 1.3q0 0 .3.2-1.5-.6-2 .8h.8l-.3.9-.2.6-.2-.2-.1-.6c-.5.6-1.3.9-.9 2l-1.2.6.3.6c-.7.1-1.5.3-1.3 1.2l1 .4-1.4.6-.3.7c-1.2.2-.5.7-.2 1.1q-.4.3-.8.4.5.1.6.4l-.6.3.5.3-1.3 1 .1.5q-.5.4-1 1.2-.4.9-1 1.7c-1.8 2-3 4.3-5.4 5.9q-1.3 1-2.4 2.1-2.3 2.3-4.6 4.5l-6.7 5.1-8.6 5.9-5 2.8-4.8 2.7c-1 .7-2 1.7-3 2.2l-8.9 3.4-.7.2q-3.1 1.6-6.4 2.8-3 1-6.1 1.6-1 .1-2.3.1l-4.4.8-11.4 1.4q-3.3.4-6.6 1l-4.8-.2c-1.1 0-2.3.3-3.4.1q-2.8-.4-5.5-1-.7-.3-1.4-.1c-.7.3-1.3-.2-2 0l-1.2-.3h-1.3q-1.4-.5-2.8-.5c-1 .1-2-.4-3.2-.7l-4.6-1q-.8-.2-1.7-.8-.2.2-.8.3-2.3-.3-4.3-.9c-1.2-.4-2.3-1-3.6-.8l-1-.1q-.4-.8-.8-1c-1.7 0-2.7-1.5-4.2-1.9-.8-.2-1.4-1.1-2.2-1.4-1.9-.7-3.4-2.4-5.6-2.7q-1-.2-2.1-.6l.6.8-.1.2-7-4-.9-.7-2.3-1.5-.8-.4c-.5.6-1 .1-1.4 0-2.3-1.7-5-2.7-7.2-4.6q-1.6-.9-2.8-2.2a14 14 0 0 0-4.3-3.4l-3.7-2.2q-1.1-.6-1.3-2c0-.5-.2-1.1-1-.8q-.5-.9-1.1-1.3-1.4-.7-2.5-1.9c-1.1-1.2-1.4-1.6-2.4-2-1.7-.7-2.7-2.1-3.8-3.3q-3.5-4.4-6.8-9l-.8-.7 1.2 2.6-.3.2-1.6-1.8-.3.2 6.2 9.8 1.5 2.4-.4.2a3 3 0 0 1-2.2-1.6c-.8-1.4-1.6-2.3-3.4-2l-.4-2H25l3.4 5.4q-.7-.5-1-.5c1.7 1.6 2.8 3.7 4.8 4.7.4 2 2.6 3 3.2 4.9l-1.3-.3q-1-1.3-2.2-2.7.3.9.8 1.6 1.5 2 3.2 3.7c.4.4 1 .6 1 1.4l.7-.5-.3.8.8.1c.2.5 0 1.3 1 1.1l.2.2q.8 1.5 2.1.7.4-.1.7.2.6 1.4 1.8.3l.1 1.2h.3v-.8l.8.6q1.2 2 2.9 3.3 2.3 2.2 4.6 4.2a66 66 0 0 0 9.8 6.5q6.1 3.6 12.4 7a67 67 0 0 0 16.1 5.8l6.2 1.4q2.7 1 5.4 1.7l8.4 1.7 1.9.2v.2c.8 0 1.7-.3 1.9 0 .4.6.8.3 1.3.2q1-.2 2-.2c2.4.1 4.7.6 7.1.5.6 0 1.3-.5 1.8.4l.4-.3 1.1-.1v.1l-.7.2q.6 0 1 .3l-.4.2-.8.4q4.6 1 8.6 0v-.5h.4l.1.5q6.1.6 11.6-1.4c.4.4.6 1 1.1.2q.4-.4 1-.5 1.3-.5 2.4-.2c.8.2 1-.5 1.7-.5l2.9-.2 1.6-.6v-.2l-1.9-.2 3-1.4v.2q-.3.2-.7.4h1.2c-.3 0-.6.8-1 1.3l8.7-2.1v-.2q-.5 0-.9.2c0-1.8 2-1.2 2.6-2.3l-2.6.7v-.2l9-3.8v.1q-.7.5-1.8 1 .8.3 1.1.2v.6c1.4-.1 1-1.4 1.5-2.2q.4.2.9.2l2.2-.7 2.6-.9 4-2h1q.4 0 .7-.4c.3-.3.7-.8 1-.7q1.8.3 2.4-1.4h.1l1.3-1 5.7-3.1q0 0 .4 0l.8-.1 3.2-1.7c-.3-.1 0-.2-1-.3v-.2c1-.1 1.2-.2 1.7-.4l-.1-.2c2.2-2.2 5-3.9 7.2-5.8l.9.2v-.7l1.2-1.3q3-2.4 5.7-5 3.8-3.7 7.2-7.8 3.1-3.5 5.8-7.5 3.6-5.5 6.7-11.4l4.5-8.3q.3-.5.8-.6l6.9-.7q.8-.1 1.6-.7l-.7-1.4-1.2-1.4-.8-1.5-.8-1.2-1.5-3-.2-.9c1.6-3.4 2.2-7 3.7-10.4 1.4-3.4 1.9-7.3 2.6-11q.8-5.3 1.4-10.7.4-3.7.6-7.4c.6-4 .4-7.7.3-11.4zM38.6 217.5q-.8-1-1.7-2.1l.3-.3 2.8 3.2q-.9-.2-1.4-.8m1.4.8q.4 0 .8-.2l.7 1.5q-1.9-.1-1.5-1.3m90 35.7v-.2l4.8-.6v.3zm21.8-2.2-3.7.6c-.5 0-1 .5-1.2-.3q-.2 0-.5.2c.5 1.3 1.5.2 2.4.8l-5.6.7v-.2l1.7-.3v-.2l-2.6-.2q-.5.1-.9.4l-1.1.2q-2.3 0-4.3.2l-.4-.1v-.3l17.3-2.3q0 .3.2.5-.7 0-1.3.3m1.3-.9 5.7-.7c-4 1.1-5.3 1.3-5.7.7M77.7 76.4 86.1 65q1.2-1.7 2.4-3.4l1-.9v-.2l.8-1q.6-1.2 1-2.3l.4-.4c1.2.6 1.2-.7 1.6-1.1l2.3-2.7 1.5-2-.3-1.1h-.3l.8-.6h.2a37 37 0 0 1 5-6.2q-.4.6-.6 1.1h.2l3.2-4-.3-.2-1.2 1.3-.3-.1 2.6-3.6.7 1.3 1-2-.9.7-.2-.2 1.5-2.4 5-7q.9-1.3 1.8-2.5c1.7-3.3 4.3-5.8 6.3-8.9q.7-.8 1.5-1.6.6-.7 1.1 0l7 9a81 81 0 0 1 5.1 6.5l6 8.3 6.6 9.6 9.6 14.6 7.2 10.5H161c-4 0-8.2-.4-12.3-.3q-8.3.6-16.6 1.3-10.6.8-21.1.7-3.7.2-7.5.5l-9 .5-10.6.3zm99.1 39.8v.7l-.3.1-1.1-3.7q-1.2-3.8-3.4-7.2l-5-7.5-1.6-1.6q-2.6-3.1-6-5.5-5.1-3.2-10.7-5.6l-3-1.5h2l14.8-.3q4.8 0 9.5-.2 1.1 0 1.6.9l2.5 3.9.2.7.1 5.8q.2 3 .3 5.8v6.2zm-93-29 12-.6 9.4-.4q1.9-.2 3.8 0-2.2 1-4 2.2c-1.5 1-3 2.5-4.6 3.6q-2.3 1.7-4.2 4-2.5 2.9-5.2 5.6-2 1.9-3.6 4.1-2.2 3-4.2 6.1c.5-8.2 1-16.3.6-24.6m56.5 83.2q-4.2 1-8.5 1.8-3.7.3-7.4.2-3.3 0-6.7-.2c-2.5-.3-5-.5-7.4-1.7q-3.2-1.4-6.3-2.8a13 13 0 0 1-5.7-4.2q-2-2-4-3.7a4 4 0 0 0 1.7 2.5q-.6.9-1.9-1.1l-.7.3.8-1.7-1.1-2.1-2-3.5-.3-.8q-.8-.8-1.3-1.5-.9-1.6-2.1-3.2v.8l-.1.1-1.8-4.4-.2.1L87 151h-.3l-.7-1q-.4-1-1.1-.5c-.3.2-.4.8-.4 1l2 4.5.6 1.4q.3.3.4.6l1 2 2.4 3.1 2.2 3.2q.1.2.4.3c.5 1.3 2 2.2 3 1.7.2 2 2.4 2.7 3.3 4.6l-2.6-1.1-.1.3a34 34 0 0 1 5.5 3.3 8 8 0 0 0 3.7 1.8l-.1-.3 6.8 3.3-28.5.5-.1-4.8v-2q-.1-6-.7-11.9a84 84 0 0 1-.5-12.3q.1-3.4-.1-6.9v-9q0-.5.4-1.2h.3l.1.6c.3.2.7.7.9.6.5-.4 1.3-.7 1.5-1.2a9 9 0 0 0 .6-3.2q0-1.1.7-1.9l.4-.8-1.1-.8c.3-1 .2-2 1.5-2.6q.2-.2.3-.8l.3-2.1.4.5q.1-.3.2-.3v-1c1-.2.6-1.3 1-1.8q.2-.2 0-.5v-.5c1.3-.2 1.1-1.5 1.9-2.1q.3-.3.7-.9c.7 1.2-.5 1.8-.6 2.7 1.5-.9 1.9-3 1-3.6l1-1q1.5-1.4 2.8-3 .8-1.2 1.6-2.4l1.5-1q2.5-1.3 4-3.4l.7-.5q.6-.2.9-.4l-.4-.9 1.4-.8-.5 1.2.4.4 2.8-1.8-.5-.5-2 1 .2-.4 3.7-2.2q4.6-2.2 9.1-4 .8-.3 1.8-.1l.7-.1 4.2-1.2 1.9-.3q3.9 0 7.8.3 1.5 0 3.2.7 2 .7 3.8 1.6l4.3 2.6 7.3 5q3.5 2.2 5.9 5.6c1.9 2.7 4 5.1 5 8.4l1.2 5.7c.3 1 .9 2 .6 3.3l-1.1 6.6q-.3 1.3-.3 2.5c.2 2.7-.8 5-1.9 7.5q-.5 1.1-1.3 2.4l.7.3.8-1.5h.2l-1.2 3.8a80 80 0 0 1-3.4 8c-.7 1.5-1.9 2.7-2.8 4q-1.1 2-2.4 3.7-1 1.6-2.6 2.6a67 67 0 0 1-7.2 4.9q-2.5 1.3-5.1 1.9zm-46-4.6H94l-.6-.3-2-3a1 1 0 0 1-.2-1zm53.7 11.8a35 35 0 0 0 11.4-7.8q5.3-3.6 8.7-8.9c2.8-4 4.6-8.4 6.8-12.7l.5-1c-.1 10 1 19.6 2.3 29.4zm87.6-2.6q-.1.3-.4.5l-.1-.7c-.5 1.3-1.7.7-2.4.7h-14.1l-13.6.1q-2.2.2-4.5.5l-10.6.3q-.3-.1-1-.8 0 .3-.5.8-.1-.2-.4-.6l-.3.7h-.2q-.4-1.7-.6-3.6.1-3.8.4-7.7v-3.5l1 .7.5-.9-.4-.2.4-.4.2-.7-.2-1.6h.2l.5 2.5h.3c-.4-.6.8-1.1-.2-1.8l.1-.9-.7-1.7.6-.3-.8-.4c.8-.8.8-1.2 0-2l.4-.2q0-1.2-.2-2.4c-.2-.8.3-1.9-1-2.4l.3.7-.5.3c-1.1-1-.4-2.5-.7-4l1.5.5-.9-2h-.3v-5.8l1 .2v-.3l-1-1 .2-.3c-.7-.8-.3-2-.3-2.3v-6c.8.8-.4 2 .8 2.5v-.9l-.2-3.9h-.2q0 .3-.2.4h-.1l.5-20.6q1.4 1.7 2.4 3.3 3.2 5.2 7 10l5.9 8.9 6.9 10.6 5.4 8 5 6.8 4.5 6 5.2 7.1 2.8 3.7q.9 1 1.8 1.6h-.3l.6.7q1.4.7.5 1.8m4.4-21.6v-.6zm3-38-.8-.7-.1.9c-.1-.3-.7-.2-.7-.5-.1 1.2.5 2.5.4 3.7.3-.2 1.3-.3 1.6-.6l.3.2c-1.7 1.3-1.3 2.6-.5 4 .2.4.7 1.1.2 1.8q-.2.4.1 1.1h.3v.2l-.8.3c-.1-.3-1.2-.8-1.2-1.2v4.4c.9.2.9 1.4 1.2 2l.4-.7v.1q0 .8-.3 1.6l-.4 2.2.2.4c-1 2.1-.5 4.6-.8 6.8-.3 1.6 0 3.4-.2 5.1l-.9 4.5q0 .3-.7.5a7 7 0 0 0 0-2.7l-1.3-.6c0 1.2.7 2.9 1 4.3l-1.5-.7-.2 3.5c-.1.9-.9 1.7-1 2.6 0 .5.6.9.5 1.7h.7c0-1.7.8-3.2.8-5h.3q.2.2.2.4-.3 1.5-.4 3c0 .4.4 1 .3 1.6l-.4 1.8q-.1-.6-.2-.9h-1c0 .4.7 1 .6 1.4q0 0-.3.2l-2.9-4.2-6.7-10-1.6-2.5q-4-6.9-8.9-13.2-3.5-5-6.8-10l-6.5-9.6-2.4-3q-3.3-5.5-6.5-10.8-3-4.5-6-8.6l-2-3-.2-.7q-.4-2.9-.4-5.6l.1-5.3v-1.5l.1-1.2.3-.4h-7.6c-1.7.1-2.5-.6-3.7-1.8-3.2-3.7-5.7-8-8.5-12l-8.2-11-6.8-9q-3.7-5.3-7.5-10.4l-9.5-12.4-4.7-5.8 3.2.5 4.1.2 9.3.9q3.9.6 7.9 1.3a111 111 0 0 1 16.8 4.3q4.8 1.6 9.4 3.7 10.4 4.4 20.2 10c2 1.1 3.3 3 4.8 4.6l6.7 7 7.3 8.8 6.5 7.7q1 1.3 1.8 2.6 2.3 3 4.2 6.4 1.2 2.5 2 5.3l2.6 8 1.5 6c.4 1.5.3 3 .7 4.3.5 1.8 0 3.8.5 5.6l.3.7c.3.3.6.6 0 1.2v.7q.3-.3.5-.7l.1.4v1l.3.6.7-.5q1 4.4.8 9c0 2.8.5 5.6-.7 8.4.3-1-.3-1.8 0-2.7" />
    <path
        d="M188 149.2h.2zm13.7 85.4q-1.5 1.1-3.2 1.5l-.1-.2 3-1.8zm-162-117.1q1.3-1.8 2.9-3.6l.8.3-3.2 4.1-.6-.8zM15 159.8l-2.1-4.5.8-.3q1.3 2.2 2 4.5zm22-41.5-1.5 2.5c-.1-.1-1 .3-1.2.2l2.4-3q0 .3.3.3m155.3 119.8h.2l2 .1q-1.7 1.1-2.2 0zM37.3 122q0-.4.4-.8h.4l.7-1.6-.2-.2-1.6 1.1.2.4q-1 0-1.3 1.2-.1.4-1 .7l-.3 1v.2l-.3.2-1.7 1.5-.2.8L35 124v.1l1-1.5s0 .2.2.2l-.8 2.2-.4.2-1 .8-1.5 1q-1.4 1.2-2.7 2.3l-2 3q1.6-.4 1.3 1c1.2.2 1.3-.8 1.6-1.5q.1-.3.4-.6l2.5-2q.3-.3.2-.7l-.7-.2 2.6-3.3q.9-.4 1-.9c-.2-1 .4-1.2 1.1-1.5l-.4-.6z" />
    <path
        d="m39 121-1 1.8-.5-.3c-.4 2-1.6 3.7-2.8 4q.5.4 1 .3.3-.2.5-.8l2.4-3.3.8-1.3zm-28.8 38h1.4c0-.3.5-.2.5-.6h.2l.1 1.3h-1.8zm-.7-4q-.4-.4-.6-.8t.4-1.2l.4 1.7zm2.2-5.5 1 2.6-.6.4-1.2-2.7zM204.1 232l1.6-.5q-1.2.8-1.9 1.6l-.2-.2zM97.9 49.5l1.4-1 .2.2-1.5 2.2-.2-1.3q0 0 0-.1zm25.3 43.7 2.5-1.1v1.2l-1-.2c-.5.1-1.4.8-1.9.9zm64.8 73.3c.2.8 1.8 1.3.2 2.1l.8.5-.2.3q-.3.3-.7.2l-.3-.5z" />
</svg>