<svg width="2500" height="2500" viewBox="0 0 256 256" xmlns="http://www.w3.org/2000/svg" preserveAspectRatio="xMinYMin meet"><g ><path d="M255.9 121.1c0-3.3-.3-6.7-.4-10-.2-3.3-.3-6.7-.6-10-.6-4.6-1.2-9.3-2.3-13.8-.8-3.7-2-7.3-3.4-10.8-1.6-4.1-3.2-8.4-5.3-12.4-3.4-6.3-7.8-12-11.9-18-2.6-3.8-6-7-8.7-10.8a26.7 26.7 0 00-5.8-5.9 151.8 151.8 0 00-19.2-13c-2.3-1.3-4.8-2.4-7.2-3.5-2.8-1.3-5.5-2.9-8.6-3.5l-2.2-.6-5.9-2.1c-3-1-6-2.1-9-2.9-3-.8-6.2-1.3-9.3-1.7-3.5-.5-7-.7-10.5-1-2.2-.3-4.5-.6-6.6-.6-3.3-.2-6.7-.2-10-.3-1.6 0-3.3-.3-5-.2-2.5.1-5 .4-7.5.7l-7.2 1-8.5 1-8.1 1.2-2.9.7c-2 .4-4.2.6-6.3 1.3a101.8 101.8 0 00-21 8.4c-3.2 1.8-6.3 4-9.4 6a100.9 100.9 0 00-16.6 13.3c-1.4 1.4-2.5 3-3.8 4.6l-6.4 7.5-5 6.7c-2.9 4-5.4 8.2-7.7 12.4L10.9 70c-1.3 2.6-2.7 5.1-3.9 7.8-.8 1.8-1.5 3.8-2 5.8a698 698 0 00-3.6 12.8C.4 100.2.1 104.2 0 108c0 3.5.3 6.9.6 10.3.1.9-.4 2 .6 2.6v.5c-.3.5 0 1 .5 1.2v.1h-.4c-.3.8.6 1.4.3 2.3-.1.2.2.5.4.8v.8c0 .8.4 1.6.4 2.4 0 .7.6 1.3.7 2 .1.2 0 .6-.1.8-.6.6-.5 1.1.3 1.5.2 0 .4.4.4.6l-.2 1.5c.1.2.2.4.1.6 0 .2-.2.5-.1.7.7 1.3 1 2.9 1 4.4 0 .4.2.7.4 1.2h.5l-.5 1.6 1.2-.5.8 3.1.5.5c0 .2 0 .5-.2.6.3 1.6.5 3 1.1 4.5h.3l-.7-4.8v-.5l.2-.1.3 1c.7 0 1.7.4 2.4.4l.3-.7-1.5-1.8c.2.6 0 .9 0 1.2l-1.2-.6 1.2-1.3c0-.8-.4-1.5-1.6-1.4.5-.2 1-.5 1.6-.6l.3.7c.7-1.2-.4-2.2-.4-3.4.1-1.5-.8-3-1-4.5-.4-2.4-.4-6-.6-8.5l-.5-.5-.6 1.3c.3 2 .6 4.2.7 6.2l-.1.1-1.2-5.8-.1 1.2c-.3 0-.4-.1-.8-.3.3.8.7 1.3 1 1.9-.7-.3-1.4-.2-1.4-.2v2.4c-.8-.8-1-1.5-1.5-2.1l-.4-2 .2-.2-.2-.8a67.7 67.7 0 01-.3-2.1l.6-.4-.7-1 1.6.2v-.4c-.9-.8-.3-1.4 0-2.1.2-.4.8-.5 1-.8.7-1.3 1.8-2.3 1.8-4 0-.8.3-1.6.4-2.4l.4-4.4c.2-2 0-3.8.4-5.6a117.3 117.3 0 014.9-15.5c1.3-3.4 2.5-6.7 4.1-10 2.3-4.6 5-9.1 7.6-13.7L30 58a70.1 70.1 0 0114.6-17.7c3.5-3.1 6.7-6.3 10.5-9.2a105.7 105.7 0 0129-15.7c2.9-1.1 6-1.6 9-2.6 3.5-1.1 7-1.6 10.6-1.7 2.4 0 4.6-.3 7-.6l6.3-.6a3.8 3.8 0 00-.4.7l-3 4.1c-.7 1.2-1.6 2.4-2.4 3.5l-4.1 5.5c-2 2.9-3.8 5.8-5.9 8.7-2 2.7-4.3 5.3-6.5 8-2.8 3.7-5.5 7.5-8.4 11.2-2.5 3.6-5.3 7-7.8 10.5-2.3 3.1-4.3 6.4-6.4 9.6l-9.6 14.2a817.8 817.8 0 01-7.6 10.8l-.7.5c-.2.1-.5.3-.5.5-.2.6-.2 1.2-.5 1.7-.6 1.3-1.3 2.6-2.1 3.8-.4.7-1 1.3-1.6 2l-.4-.2c.3-.8 1.8-1.3 1.1-2.6l-1.3 2-1 2c.3.3 1 .5.3 1l-.7 1.4h.1l.8-1 .3.2-1.2 2.4c-.4.7-1.3 1.2-1.9 1.7l.8.5c.3-.4.4-.2.6-.6.2.3.5-.1.5.1.3-.3.6-.6.6-.8.4-.9 1-1.6 1.8-2l.8-.6c2.6-2.7 5.3-5.3 7.6-8.2 3.7-4.4 7-9 10.4-13.4 1.5-2 3.2-3.8 4.8-5.7l.4.2-.4 5.5-.7 9.7-.1 4c0 .3-.3.5-.3.9l.3 2.6-.9 9.6c0 .6.3 1.3.5 2l-.5-.4c0 5 1 10 .2 14.9.3-.1.5-.2.5-.4l.3-1.8v-2.6c0-1.5.4-3.1.2-4.7-.1-1.7-.1-3.3.2-5 .2-.7 0-1.5.4-2.4v1.3c-.1 5 0 9.9-.6 14.8-.1.4.2 1.2-.7 1.1l-.4.7c-.4.9.5 2-.3 2.8-.2.2.1 1 .2 1.5 0 .2.1.4 0 .4-.3.7-.3.7.2.7 0 2 .3 3.7.3 5.5h.3c1.1-3.3.4-6.7 1-10 .1 1.3.2 2.7.1 4.2l-.1 6.6-.2 1.3c-.3 1.3-.4 2.5-.8 3.6-.3.9-.2 2.1-.2 3.2v3.3s.3.3.3.7c0 .7-.4 1.5 0 2.4l-.3.6c0 .2-.1.5 0 .8l.2 1.3.2.3v-.7c1.5.2.8 1.5 1.4 2.2l-.6.3c.1.4.3.6.3 1 0 .7 0 1.4-.2 2.2v9.1h.3l-.6.8-.4-.1v-11h-1.3c-.1 5.3.3 10-.6 14.8l-2.6.2-8 .1-9.5.1-4.8.2-6.3-.3c-3.2 0-6.3.3-9.5.4l-7 .1a85 85 0 00-4.6.4c-.7 0-1.3.3-2.2.6h-1.4c-.8.2-1.6.7-2.5.9-1.3.2-1.6.6-1.5 1.9v.8a2.6 2.6 0 00-.6-.4h-.1c0 .3.2.5.3.8.4-.2.8-.6 1.1-.6h1.2l-.5 1a66.8 66.8 0 001.6-.7v.7c1.3 0 2.4-.4 3.4-.2a68.6 68.6 0 0017 2l9.6.3c2.7 0 5.2-.3 8-.3l11 .3 2.6-.1H72l16.8-.4 9.7-.4 9.9-.2 11.3-.2 8.5-.2c3.2 0 6.4-.3 9.6-.5 1.8 0 3.5-.3 5.2-.4l6.3-.6 9.5-.4c3.8-.2 7.7-.6 11.7-.7 3.6-.2 7.4 0 11-.2l9.7-.3 5.4-.3 5.4-.2 9.4-.6 6-.1 9.6-.3 4 .3-1.6 1.4c.4 0 .7.2 1 .4v.4h-1.3l-.5 1.5h1.5c-.6 0-1 .8-1.7 1.3 0 0 .2 0 .3.2-1-.4-1.6-.2-2 .8h.8l-.3.9-.2.6-.2-.2-.1-.6c-.5.6-1.3.9-.9 2l-1.2.6.3.6c-.7.1-1.5.3-1.3 1.2l1 .4-1.4.6-.3.7c-1.2.2-.5.7-.2 1.1-.3.2-.5.4-.8.4.3.1.5.2.6.4a5 5 0 01-.6.3l.5.3-1.3 1 .1.5c-.3.3-.7.6-1 1.2-.3.5-.5 1.2-1 1.7-1.8 2-3 4.3-5.4 5.9-.9.6-1.6 1.4-2.4 2.1-1.6 1.5-3 3.1-4.6 4.5a98.4 98.4 0 01-6.7 5.1l-8.6 5.9-5 2.8-4.8 2.7c-1 .7-2 1.7-3 2.2l-8.9 3.4-.7.2c-2.1 1-4.2 2-6.4 2.8-2 .7-4 1.2-6.1 1.6-.7.2-1.5 0-2.3.1l-4.4.8-11.4 1.4c-2.2.2-4.4.7-6.6 1l-4.8-.2c-1.1 0-2.3.3-3.4.1-1.8-.2-3.7-.7-5.5-1-.4-.1-1-.3-1.4-.1-.7.3-1.3-.2-2 0l-1.2-.3h-1.3c-1-.2-1.8-.6-2.8-.5-1 .1-2-.4-3.2-.7l-4.6-1c-.6-.2-1.1-.4-1.7-.8-.2.1-.4.3-.8.3-1.5-.3-3-.4-4.3-.9-1.2-.4-2.3-1-3.6-.8l-1-.1c-.3-.4-.5-1-.8-1-1.7 0-2.7-1.5-4.2-1.9-.8-.2-1.4-1.1-2.2-1.4-1.9-.7-3.4-2.4-5.6-2.7-.7 0-1.4-.4-2.1-.6l.6.8-.1.2-7-4-.9-.7-2.3-1.5-.8-.4c-.5.6-1 .1-1.4 0-2.3-1.7-5-2.7-7.2-4.6-1-.7-2.1-1.2-2.8-2.2a13.6 13.6 0 00-4.3-3.4l-3.7-2.2c-.6-.4-1.3-1-1.3-2 0-.5-.2-1.1-1-.8-.3-.5-.7-1.1-1.1-1.3-1-.4-1.7-1.2-2.5-1.9s-1.4-1.6-2.4-2c-1.7-.7-2.7-2.1-3.8-3.3-2.4-2.9-4.5-6-6.8-9l-.8-.7 1.2 2.6-.3.2-1.6-1.8-.3.2 6.2 9.8 1.5 2.4a1.2 1.2 0 01-.4.2c-.9-.1-1.8-.8-2.2-1.6-.8-1.4-1.6-2.3-3.4-2a15 15 0 01-.4-2H25l3.4 5.4c-.5-.3-.7-.5-1-.5 1.7 1.6 2.8 3.7 4.8 4.7.4 2 2.6 3 3.2 4.9l-1.3-.3c-.6-.9-1.4-1.7-2.2-2.7.2.6.4 1.1.8 1.6 1 1.3 2 2.6 3.2 3.7.4.4 1 .6 1 1.4l.7-.5-.3.8.8.1c.2.5 0 1.3 1 1.1l.2.2c.5 1.1 1.2 1.1 2.1.7.2-.1.6 0 .7.2.4 1 1 1 1.8.3l.1 1.2h.3v-.8l.8.6c.9 1.3 1.7 2.4 2.9 3.3 1.6 1.4 3 2.9 4.6 4.2a66 66 0 009.8 6.5c4.2 2.3 8.1 4.8 12.4 7a66.8 66.8 0 0016.1 5.8l6.2 1.4c1.8.5 3.6 1.3 5.4 1.7l8.4 1.7 1.9.2v.2c.8 0 1.7-.3 1.9 0 .4.6.8.3 1.3.2.6-.2 1.3-.2 2-.2 2.4.1 4.7.6 7.1.5.6 0 1.3-.5 1.8.4l.4-.3 1.1-.1v.1l-.7.2c.5 0 .7.2 1 .3l-.4.2-.8.4c3 .7 6 .7 8.6 0v-.5h.4l.1.5c4 .4 8-.1 11.6-1.4.4.4.6 1 1.1.2.2-.3.7-.4 1-.5.8-.2 1.7-.5 2.4-.2.8.2 1-.5 1.7-.5a16.1 16.1 0 002.9-.2l1.6-.6v-.2l-1.9-.2 3-1.4v.2c-.2 0-.4.4-.7.4h1.2c-.3 0-.6.8-1 1.3l8.7-2.1v-.2c-.4 0-.6 0-.9.2 0-1.8 2-1.2 2.6-2.3l-2.6.7v-.2l9-3.8v.1c-.5.4-1 .6-1.8 1 .5.2.9.2 1.1.2v.6c1.4-.1 1-1.4 1.5-2.2.2 0 .6.3.9.2l2.2-.7 2.6-.9 4-2h1c.3 0 .5-.2.7-.4.3-.3.7-.8 1-.7 1.2.2 2-.3 2.4-1.4h.1l1.3-1 5.7-3.1c0-.1.2 0 .4 0l.8-.1 3.2-1.7c-.3-.1 0-.2-1-.3v-.2c1-.1 1.2-.2 1.7-.4l-.1-.2c2.2-2.2 5-3.9 7.2-5.8l.9.2v-.7l1.2-1.3c1.9-1.7 4-3.2 5.7-5 2.5-2.5 5-5 7.2-7.8 2-2.4 4.1-4.8 5.8-7.5 2.5-3.7 4.5-7.5 6.7-11.4l4.5-8.3c.2-.3.5-.6.8-.6l6.9-.7c.5 0 1.1-.4 1.6-.7l-.7-1.4-1.2-1.4-.8-1.5-.8-1.2-1.5-3-.2-.9c1.6-3.4 2.2-7 3.7-10.4 1.4-3.4 1.9-7.3 2.6-11 .6-3.6 1-7.1 1.4-10.7.2-2.5.6-4.9.6-7.4.6-4 .4-7.7.3-11.4zM38.6 217.5c-.6-.6-1-1.4-1.7-2.1l.3-.3 2.8 3.2c-.5-.2-1.1-.4-1.4-.8zm1.4.8c.3 0 .5 0 .8-.2l.7 1.5c-1.2 0-1.8-.6-1.5-1.3zM130 254v-.2l4.8-.6v.3a46 46 0 01-4.8.5zm21.8-2.2l-3.7.6c-.5 0-1 .5-1.2-.3-.1 0-.3 0-.5.2.5 1.3 1.5.2 2.4.8l-5.6.7v-.2l1.7-.3v-.2a26 26 0 00-2.6-.2c-.3 0-.6.3-.9.4l-1.1.2c-1.5 0-3 0-4.3.2l-.4-.1v-.3l17.3-2.3c0 .2 0 .3.2.5-.5 0-.9.2-1.3.3zm1.3-.9l5.7-.7c-4 1.1-5.3 1.3-5.7.7zM77.7 76.4L86.1 65c.9-1.1 1.5-2.3 2.4-3.4l1-.9v-.2l.8-1c.5-.8.7-1.6 1-2.3l.4-.4c1.2.6 1.2-.7 1.6-1.1a61.1 61.1 0 002.3-2.7l1.5-2-.3-1.1h-.3l.8-.6h.2a37.2 37.2 0 015-6.2c-.3.3-.4.8-.6 1.1h.2l3.2-4-.3-.2-1.2 1.3-.3-.1a62 62 0 002.6-3.6l.7 1.3 1-2-.9.7-.2-.2 1.5-2.4 5-7c.5-1 1.3-1.6 1.8-2.5 1.7-3.3 4.3-5.8 6.3-8.9.4-.6 1-1 1.5-1.6.4-.5.8-.4 1.1 0l7 9c1.8 2.1 3.5 4.2 5.1 6.5l6 8.3 6.6 9.6 9.6 14.6 7.2 10.5H161c-4 0-8.2-.4-12.3-.3-5.5.3-11.1.9-16.6 1.3-7 .6-14.1.7-21.1.7-2.5 0-5 .4-7.5.5l-9 .5-10.6.3h-6.2zm99.1 39.8v.7l-.3.1-1.1-3.7c-.9-2.5-1.9-5-3.4-7.2l-5-7.5-1.6-1.6c-1.8-2-3.6-4-6-5.5-3.4-2.2-7-4-10.7-5.6l-3-1.5h2l14.8-.3c3.2 0 6.3 0 9.5-.2.8 0 1.2.2 1.6.9l2.5 3.9.2.7.1 5.8c0 2 .3 3.9.3 5.8v6.2l.1 9zm-93-29l12-.6 9.4-.4c1.3-.1 2.5-.2 3.8 0-1.4.7-2.8 1.4-4 2.2-1.5 1-3 2.5-4.6 3.6-1.5 1.1-3 2.5-4.2 4-1.6 2-3.5 3.7-5.2 5.6-1.2 1.3-2.6 2.6-3.6 4.1-1.5 2-2.8 4-4.2 6.1.5-8.2 1-16.3.6-24.6zm56.5 83.2c-2.8.6-5.6 1.4-8.5 1.8-2.4.3-5 .2-7.4.2-2.3 0-4.4 0-6.7-.2-2.5-.3-5-.5-7.4-1.7-2-1-4.3-1.8-6.3-2.8s-4.2-2.3-5.7-4.2c-1.2-1.4-2.7-2.5-4-3.7a4 4 0 001.7 2.5c-.4.5-1 .3-1.9-1.1-.2.2-.5.3-.7.3l.8-1.7-1.1-2.1a70.8 70.8 0 01-2-3.5l-.3-.8c-.5-.5-1-1-1.3-1.5-.6-1-1.3-2.2-2.1-3.2v.8l-.1.1-1.8-4.4-.2.1L87 151h-.3l-.7-1c-.2-.7-.7-.7-1.1-.5-.3.2-.4.8-.4 1l2 4.5.6 1.4c.1.2.4.4.4.6l1 2 2.4 3.1 2.2 3.2c0 .2.3.2.4.3.5 1.3 2 2.2 3 1.7.2 2 2.4 2.7 3.3 4.6a39.8 39.8 0 01-2.6-1.1l-.1.3a33.5 33.5 0 015.5 3.3 8 8 0 003.7 1.8l-.1-.3a277.9 277.9 0 016.8 3.3l-28.5.5-.1-4.8v-2c-.2-4-.2-8-.7-11.9a84 84 0 01-.5-12.3c.1-2.3 0-4.6-.1-6.9v-9c0-.4.2-.7.4-1.2h.3l.1.6c.3.2.7.7.9.6.5-.4 1.3-.7 1.5-1.2.4-1 .6-2.2.6-3.2 0-.8.3-1.3.7-1.9l.4-.8-1.1-.8c.3-1 .2-2 1.5-2.6.2 0 .2-.5.3-.8l.3-2.1.4.5c0-.2.2-.3.2-.3v-1c1-.2.6-1.3 1-1.8.2-.1 0-.4 0-.5v-.5c1.3-.2 1.1-1.5 1.9-2.1.3-.2.3-.5.7-.9.7 1.2-.5 1.8-.6 2.7 1.5-.9 1.9-3 1-3.6a5 5 0 001-1c1-1 2-1.9 2.8-3 .6-.7 1-1.7 1.6-2.4a5 5 0 011.5-1c1.6-1 3-1.9 4-3.4l.7-.5c.3-.2.8-.2.9-.4l-.4-.9 1.4-.8-.5 1.2.4.4 2.8-1.8-.5-.5-2 1 .2-.4 3.7-2.2c3-1.4 6.1-2.8 9.1-4 .5-.3 1.2-.1 1.8-.1l.7-.1 4.2-1.2a7.2 7.2 0 011.9-.3c2.6 0 5.2 0 7.8.3 1 0 2.1.3 3.2.7 1.3.4 2.6 1 3.8 1.6a42.7 42.7 0 014.3 2.6l7.3 5c2.4 1.4 4.3 3.4 5.9 5.6 1.9 2.7 4 5.1 5 8.4l1.2 5.7c.3 1 .9 2 .6 3.3l-1.1 6.6c-.2.8-.3 1.7-.3 2.5.2 2.7-.8 5-1.9 7.5-.3.8-.8 1.5-1.3 2.4l.7.3.8-1.5h.2l-1.2 3.8c-1 2.7-2.1 5.4-3.4 8-.7 1.5-1.9 2.7-2.8 4-.8 1.3-1.5 2.6-2.4 3.7-.8 1-1.5 2-2.6 2.6a66.5 66.5 0 01-7.2 4.9c-1.6 1-3.4 1.4-5.1 1.9zm-46-4.6H94l-.6-.3-2-3a1 1 0 01-.2-1 73.5 73.5 0 003 4.3zm53.7 11.8a35 35 0 0011.4-7.8c3.6-2.3 6.3-5.4 8.7-8.9 2.8-4 4.6-8.4 6.8-12.7l.5-1c-.1 10 1 19.6 2.3 29.4l-29.7 1zm87.6-2.6c0 .2-.3.4-.4.5l-.1-.7c-.5 1.3-1.7.7-2.4.7h-14.1l-13.6.1c-1.5 0-3 .4-4.5.5l-10.6.3c-.3 0-.5-.4-1-.8 0 .2-.2.5-.5.8 0-.2-.3-.3-.4-.6a6 6 0 01-.3.7h-.2c-.2-1.2-.6-2.3-.6-3.6 0-2.5.3-5.1.4-7.7v-3.5l1 .7.5-.9-.4-.2.4-.4.2-.7-.2-1.6h.2l.5 2.5h.3c-.4-.6.8-1.1-.2-1.8l.1-.9-.7-1.7.6-.3-.8-.4c.8-.8.8-1.2 0-2l.4-.2c0-.8 0-1.6-.2-2.4-.2-.8.3-1.9-1-2.4a2.6 2.6 0 00.3.7l-.5.3c-1.1-1-.4-2.5-.7-4l1.5.5-.9-2h-.3v-5.8l1 .2v-.3l-1-1 .2-.3c-.7-.8-.3-2-.3-2.3v-6c.8.8-.4 2 .8 2.5v-.9l-.2-3.9h-.2c0 .2 0 .3-.2.4h-.1l.5-20.6c.9 1.1 1.8 2.2 2.4 3.3 2 3.6 4.6 6.7 7 10l5.9 8.9 6.9 10.6a253.7 253.7 0 005.4 8l5 6.8 4.5 6 5.2 7.1 2.8 3.7c.5.7 1.3 1.2 1.8 1.6h-.3l.6.7c1 .5 1 1 .5 1.8zm4.4-21.6v-.6.6zm3-38l-.8-.7-.1.9c-.1-.3-.7-.2-.7-.5-.1 1.2.5 2.5.4 3.7.3-.2 1.3-.3 1.6-.6l.3.2c-1.7 1.3-1.3 2.6-.5 4 .2.4.7 1.1.2 1.8-.2.2 0 .7.1 1.1h.3v.2l-.8.3c-.1-.3-1.2-.8-1.2-1.2v4.4c.9.2.9 1.4 1.2 2l.4-.7v.1c0 .6-.1 1-.3 1.6l-.4 2.2.2.4c-1 2.1-.5 4.6-.8 6.8-.3 1.6 0 3.4-.2 5.1a41 41 0 01-.9 4.5c0 .3-.2.3-.7.5a7 7 0 000-2.7l-1.3-.6c0 1.2.7 2.9 1 4.3l-1.5-.7-.2 3.5c-.1.9-.9 1.7-1 2.6 0 .5.6.9.5 1.7h.7c0-1.7.8-3.2.8-5h.3c0 .1.3.3.2.4-.1 1-.5 2-.4 3 0 .4.4 1 .3 1.6l-.4 1.8c0-.5-.2-.6-.2-.9h-1c0 .4.7 1 .6 1.4 0 0-.2 0-.3.2l-2.9-4.2-6.7-10a20.6 20.6 0 01-1.6-2.5c-2.7-4.6-5.6-9-8.9-13.2-2.5-3.2-4.5-6.7-6.8-10l-6.5-9.6-2.4-3c-2.3-3.6-4.3-7.3-6.5-10.8-1.9-3-4-5.8-6-8.6a92.2 92.2 0 01-2-3l-.2-.7c-.2-1.9-.4-3.8-.4-5.6l.1-5.3v-1.5l.1-1.2.3-.4h-7.6c-1.7.1-2.5-.6-3.7-1.8-3.2-3.7-5.7-8-8.5-12L160 47.7l-6.8-9c-2.5-3.5-4.9-7-7.5-10.4l-9.5-12.4-4.7-5.8 3.2.5 4.1.2 9.3.9c2.6.3 5.2.9 7.9 1.3a111 111 0 0116.8 4.3c3.2 1 6.3 2.4 9.4 3.7 7 2.9 13.6 6.3 20.2 10 2 1.1 3.3 3 4.8 4.6l6.7 7 7.3 8.8 6.5 7.7c.7.8 1.2 1.8 1.8 2.6 1.4 2.1 3 4.1 4.2 6.4.9 1.6 1.4 3.5 2 5.3l2.6 8a71 71 0 011.5 6c.4 1.5.3 3 .7 4.3.5 1.8 0 3.8.5 5.6l.3.7c.3.3.6.6 0 1.2v.7c.3-.2.3-.4.5-.7l.1.4v1l.3.6.7-.5c.7 3 .8 5.9.8 9 0 2.8.5 5.6-.7 8.4.3-1-.3-1.8 0-2.7z"/><path d="M188 149.2h.2-.1-.1zm13.7 85.4c-1 .7-2 1.3-3.2 1.5l-.1-.2 3-1.8.3.5zm-162-117.1c.9-1.2 1.8-2.4 2.9-3.6l.8.3-3.2 4.1-.6-.8zM15 159.8l-2.1-4.5.8-.3c1 1.4 1.4 3 2 4.5l-.7.3zm22-41.5l-1.5 2.5c-.1-.1-1 .3-1.2.2l2.4-3c0 .2.1.3.3.3zm155.3 119.8h.2l2 .1c-1.2.8-1.8.7-2.2 0zM37.3 122c0-.3.2-.5.4-.8h.4l.7-1.6-.2-.2-1.6 1.1.2.4c-.7 0-1 .3-1.3 1.2 0 .3-.5.4-1 .7l-.3 1v.2a1.3 1.3 0 01-.3.2l-1.7 1.5-.2.8L35 124v.1l1-1.5s0 .2.2.2l-.8 2.2-.4.2-1 .8-1.5 1c-.9.9-1.8 1.5-2.7 2.3l-2 3c1.1-.3 1.4.1 1.3 1 1.2.2 1.3-.8 1.6-1.5.1-.1.2-.5.4-.6l2.5-2c.2-.1.2-.5.2-.7l-.7-.2 2.6-3.3c.5-.3 1-.6 1-.9-.2-1 .4-1.2 1.1-1.5l-.4-.6z"/><path d="M39 121l-1 1.8-.5-.3c-.4 2-1.6 3.7-2.8 4 .3.2.7.4 1 .3.2 0 .4-.5.5-.8l2.4-3.3.8-1.3-.4-.4zm-28.8 38h1.4c0-.3.5-.2.5-.6h.2l.1 1.3h-1.8l-.4-.7zm-.7-4c-.2-.3-.6-.5-.6-.8-.1-.3.1-.8.4-1.2l.4 1.7-.2.3zm2.2-5.5l1 2.6-.6.4-1.2-2.7.8-.3zM204.1 232l1.6-.5c-.8.6-1.4 1-1.9 1.6l-.2-.2.5-1zM97.9 49.5l1.4-1 .2.2-1.5 2.2-.2-1.3c-.1 0 0 0 0-.1zm25.3 43.7l2.5-1.1v1.2a3 3 0 00-1-.2c-.5.1-1.4.8-1.9.9l.4-.8zm64.8 73.3c.2.8 1.8 1.3.2 2.1l.8.5-.2.3c-.2.1-.5.3-.7.2l-.3-.5.2-2.6z"/></g></svg>