<svg xmlns="http://www.w3.org/2000/svg" width="24" height="24" viewBox="0 0 256 296"><path d="M128 0L0 74v148l128 74 128-74V74L128 0zm68 66c11 0 19 3 24 10 12 15 2 43-23 72 25 29 35 57 23 72-14 18-51 11-92-14-41 25-79 32-93 14-12-15-1-43 23-72-24-29-35-57-23-72 5-7 14-10 25-10 18 0 42 9 68 24 25-15 50-24 68-24zm0 9c-7 0-14 2-23 4-11 4-24 9-37 17a298 298 0 0155 45l14-20c11-18 14-32 8-40-3-4-9-6-17-6zM59 75c-8 0-14 2-17 6-6 8-3 22 8 40l15 20a282 282 0 0154-45c-13-8-26-13-37-17-9-2-16-4-23-4zm69 26a284 284 0 00-57 47 272 272 0 0057 47 283 283 0 0056-47 272 272 0 00-56-47zm0 27a20 20 0 010 40 20 20 0 010-40zm-63 27l-15 21c-11 17-14 32-8 39s20 8 40 2c11-4 24-9 37-16a298 298 0 01-54-46zm126 0a282 282 0 01-55 46c13 7 26 12 37 16 20 6 34 5 40-2s3-22-8-39l-14-21z"/></svg>