<svg xmlns="http://www.w3.org/2000/svg" width="24" height="24">
    <path
        d="M8.57 23.43A.57.57 0 0 1 8 24H2.29a.57.57 0 0 1 0-1.14H8c.32 0 .57.25.57.57M8 20.57H6.86a.57.57 0 0 0 0 1.14H8a.57.57 0 0 0 0-1.14m-5.71 1.14h2.28a.57.57 0 0 0 0-1.14H2.29a.57.57 0 0 0 0 1.14M8 18.3H2.29a.57.57 0 0 0 0 1.14H8a.57.57 0 0 0 0-1.14M16 16H5.71a.57.57 0 0 0 0 1.14H16A.57.57 0 0 0 16 16M2.29 17.14h1.14a.57.57 0 0 0 0-1.14H2.29a.57.57 0 0 0 0 1.14m17.14-3.43H16a.57.57 0 0 0 0 1.15h3.43a.57.57 0 0 0 0-1.15M9.14 14.86h4.57a.57.57 0 0 0 0-1.15H9.14a.57.57 0 0 0 0 1.15m-6.85 0h4.57a.57.57 0 0 0 0-1.15H2.29a.57.57 0 0 0 0 1.15m18.28-3.43h-9.14a.57.57 0 0 0 0 1.14h9.14a.57.57 0 0 0 0-1.14zM9.71 12a.57.57 0 0 0-.57-.57H5.71a.57.57 0 0 0 0 1.14h3.43a.57.57 0 0 0 .57-.57m-7.42.57h1.14a.57.57 0 0 0 0-1.14H2.29a.57.57 0 0 0 0 1.14M21.7 9.14H16a.57.57 0 0 0 0 1.15h5.71a.57.57 0 0 0 0-1.15M2.3 10.3H8a.57.57 0 0 0 0-1.15H2.29a.57.57 0 0 0 0 1.15m13.14-2.86A.57.57 0 0 0 16 8h5.71a.57.57 0 0 0 0-1.14H16a.57.57 0 0 0-.57.57m-8.57-.57a.57.57 0 0 0 0 1.14H8a.57.57 0 0 0 0-1.14zM2.29 8h2.28a.57.57 0 0 0 0-1.14H2.29a.57.57 0 0 0 0 1.14m16.57-2.86c0 .32.25.57.57.57h1.14a.57.57 0 0 0 0-1.14h-1.14a.57.57 0 0 0-.57.57zm-1.15 0a.57.57 0 0 0-.57-.57h-4.57a.57.57 0 0 0 0 1.14h4.57a.57.57 0 0 0 .57-.57M2.3 5.71h8a.57.57 0 0 0 0-1.14h-8a.57.57 0 0 0 0 1.14m5.14-2.85c0 .31.25.57.57.57h11.43a.57.57 0 0 0 0-1.14H8a.57.57 0 0 0-.57.57m-5.14.57H5.7a.57.57 0 0 0 0-1.14H2.3a.57.57 0 0 0 0 1.14m0-2.29H16A.57.57 0 0 0 16 0H2.29a.57.57 0 0 0 0 1.14" />
</svg>