<svg xmlns="http://www.w3.org/2000/svg" width="24" height="24" viewBox="0 0 256 245">
    <path
        d="M129.7 243.6c28-100 27.2-100.5 47.5-171.9l4.8 2.8c2.7 1.5 4.8.3 4.8-2.8v-34L197.7 0h21.9L256 33.7l-24 20.7L250.3 74 130.9 243.6c-.5 1-1.3.8-1.2 0m13-215.7q1.9.1 2 1.3v17.4q-.2 1.3-2 1.4h-29.4c-1 0-2-.6-2-1.4V29.2c0-.7 1-1.3 2-1.3zm36.4-19.3-32.4 18.7q.6.8.6 1.9v17.5q0 1.4-1 2.3l32.8 19c2.2 1.2 4 .2 4-2.4V10.9c0-2.6-1.7-3.6-4-2.3m-70.3 38V29.3q0-1 .6-2L77 8.6c-2.3-1.2-4.1-.2-4.1 2.4v54.7c0 2.5 1.8 3.6 4 2.3L109.8 49q-1-1-1-2.4m16.3 197h1.2c-28-100-27.2-100.5-47.5-171.9L74 74.5c-2.7 1.5-4.8.3-4.8-2.8v-34L58.3 0H36.4L0 33.7l24 20.7L5.7 74zm2-159.2a8.8 8.8 0 1 0 0-17.7 8.8 8.8 0 0 0 0 17.7m0 52.6a8.8 8.8 0 1 0 0-17.7 8.8 8.8 0 0 0 0 17.7m0 52.6a8.8 8.8 0 1 0 0-17.7 8.8 8.8 0 0 0 0 17.7" />
</svg>