<svg xmlns="http://www.w3.org/2000/svg" viewBox="0 0 32 32"><path d="M0 16v16h32V0H0v16zm25.8-1.3c.8.2 1.4.6 2 1.2.3.3.7.9.8 1 0 0-1.4 1-2.2 1.5 0 0-.2-.1-.3-.3-.4-.6-.8-.9-1.5-.9-1-.1-1.6.4-1.6 1.3 0 .2 0 .4.1.6.2.4.6.7 1.9 1.2 2.3 1 3.3 1.6 3.9 2.6.7 1 .8 2.7.4 3.9-.5 1.3-1.8 2.2-3.5 2.5-.5.1-1.8.1-2.4 0-1.3-.2-2.5-.9-3.3-1.7-.3-.3-.9-1.2-.8-1.2 0 0 .1-.1.3-.2s.7-.4 1.2-.7l.9-.5.2.3c.3.4.9 1 1.2 1.2 1 .5 2.4.5 3.1-.2.3-.2.4-.6.4-1s0-.5-.2-.8c-.2-.4-.8-.7-2.2-1.3-1.7-.7-2.4-1.2-3-1.9-.4-.5-.7-1-.9-1.6-.1-.5-.2-1.6-.1-2 .3-1.6 1.5-2.7 3.3-3 .4-.2 1.7-.1 2.3 0zm-7.5 1.4v1.3h-4.2v11.8h-2.9V17.4H7v-1.3-1.3h11.2l.1 1.3z"/></svg>