<svg xmlns="http://www.w3.org/2000/svg" viewBox="0 0 24 24" viewBox="0 0 24 24"><path d="m8.29 10.58.5-8.66a.3.3 0 0 1 .26-.28L17.38 0a.3.3 0 0 1 .35.38l-1.56 5.4a.3.3 0 0 0 .35.39l2.4-.46a.3.3 0 0 1 .32.44L12.45 19.7l-.12.19a.3.3 0 0 1-.25.14c-.18 0-.35-.15-.3-.37l1.09-5.3a.3.3 0 0 0-.39-.36l-1.43.44a.3.3 0 0 1-.4-.36l.7-3.37a.3.3 0 0 0-.37-.36l-2.32.53a.3.3 0 0 1-.37-.31m14.97-7.93-5.98 1.09-.54 1.89 2.08-.4a.8.8 0 0 1 .84.37.8.8 0 0 1 .03.78L12.9 19.93l-.01.03-.02.02-.12.19a.8.8 0 0 1-.67.37.8.8 0 0 1-.64-.3.8.8 0 0 1-.16-.67l1.03-4.99-1.12.34a.8.8 0 0 1-.86-.26.8.8 0 0 1-.16-.67l.63-3.08-2.03.47a.8.8 0 0 1-.77-.23.8.8 0 0 1-.21-.6l.39-6.57L.74 2.65a.61.61 0 0 0-.64.9L11.58 23.7a.61.61 0 0 0 1.07 0L23.9 3.55a.61.61 0 0 0-.65-.9"/></svg>
