<svg xmlns="http://www.w3.org/2000/svg" width="256" height="234"><path d="M192.1 70.8 131 159.3a5.3 5.3 0 0 1-9.6-3.2l2.5-48.9-39.6-8.4a5.3 5.3 0 0 1-4-5.7q0-1.2.8-2.3l61.2-88.5a5.3 5.3 0 0 1 9.6 3.2l-2.5 48.8 39.6 8.4a5.3 5.3 0 0 1 4.1 5.7q0 1.3-.9 2.4"/><path d="M128 233.5a12 12 0 0 1-8.7-3.6l-57.9-57.8A12.4 12.4 0 0 1 79 154.6l49 49L235 96.7a12.4 12.4 0 0 1 17.4 17.6L136.8 229.9a12 12 0 0 1-8.8 3.6"/><path fill-opacity=".5" d="M128 233.5a12 12 0 0 0 8.7-3.6l57.9-57.8a12.4 12.4 0 0 0-17.6-17.5l-49 49L21 96.7a12.4 12.4 0 0 0-17.4 17.6l115.6 115.6a12 12 0 0 0 8.8 3.6"/></svg>
