<svg xmlns="http://www.w3.org/2000/svg" viewBox="0 0 512 512"><path d="M388.4 336.9c-35.4 8.4-43.9 29.1-94.4 43 0 0-2.4 3.6-9.4 5.3-12.2 3-58 5.4-62.1 5.5-11.2.1-18.1-2.9-20-7.4-5.8-13.9 8.3-20 8.3-20-7.3-4.5-8.2-9-8.9-7.3-2.2 5.3-3.3 18.2-9.2 24-8 8.1-23.1 5.4-32 .7-9.8-5.2.7-17.4.7-17.4s-5.3 3.1-9.5-3.3a42 42 0 0110.4-56.2 81.6 81.6 0 0136.8-77.7s-18.7-20.7-11.7-39.3c4.5-12.2 6.4-12.1 7.8-12.6 5.2-2 10.3-4.2 14-8.3 18.7-20.1 42.5-16.3 42.5-16.3s11.2-34.3 21.7-27.6c3.2 2.1 14.8 27.8 14.8 27.8s12.3-7.2 13.7-4.5c7.4 14.5 8.3 42.2 5.1 59.1-5.5 27.8-19.4 42.7-25 52.2-1.3 2.2 15 9.1 25.2 37.5 9.4 25.9 1 47.8 2.5 50.2.7 1.3 12.4.7 33-12 11.6-7.2 25.5-15.3 41.2-15.4 15.2-.6 16 17.3 4.5 20zM481 256a225 225 0 11-450.2-.2 225 225 0 01450.2.2zm-71.9 68.2c-1.5-12.3-12-20.9-25.4-20.7-20 .3-36.7 10.6-47.9 17.4-4.4 2.7-8.1 4.7-11.2 6.2a95.1 95.1 0 00-26-72 121.9 121.9 0 0021.2-48.3c3.9-19.7 2.7-50.4-6.3-67.6-1.5-2.8-6.7-10.2-19.1-6.7-8.8-18.1-11.8-20.1-14.2-21.6-1-.6-21.4-14.9-37.6 25.4a64.1 64.1 0 00-43.1 20.7c-1.8 2-5.4 3.4-9.2 4.9h.1c-7.6 2.7-11.2 9-15.3 20.2-5.9 15.8.2 31.4 6.2 41.5a90 90 0 00-32.4 74.8 53.7 53.7 0 00-5.1 72.2 20 20 0 0010.9 21.6c11.4 6.1 27.5 8.7 39.8 2.5 4.4 4.7 12.5 9.2 27.2 9.2 6.2 0 52.6-2.6 65.9-5.9a32.4 32.4 0 0013.2-6.4c8.9-2.8 33.4-11.2 56.4-26a89.4 89.4 0 0134.1-15.8 23.2 23.2 0 0017.8-25.6z"/></svg>